<svg width="54" height="56" viewBox="0 0 54 56" fill="none" xmlns="http://www.w3.org/2000/svg">
<path d="M22.9766 23.7822C29.3193 23.7822 34.4611 18.6405 34.4611 12.2978C34.4611 5.95511 29.3193 0.813354 22.9766 0.813354C16.634 0.813354 11.4922 5.95511 11.4922 12.2978C11.4922 18.6405 16.634 23.7822 22.9766 23.7822Z" fill="#2F2E2E"/>
<path d="M30.3359 44.7778H42.7804V47.2667H30.3359V44.7778Z" fill="#2F2E2E"/>
<path d="M19.6695 48.3334V53.6667C19.6695 54.1382 19.8568 54.5904 20.1902 54.9238C20.5236 55.2572 20.9758 55.4445 21.4473 55.4445H51.6695C52.141 55.4445 52.5932 55.2572 52.9266 54.9238C53.26 54.5904 53.4473 54.1382 53.4473 53.6667V35.8889C53.4473 35.4174 53.26 34.9653 52.9266 34.6319C52.5932 34.2985 52.141 34.1112 51.6695 34.1112H39.2251V31.4978C39.2251 31.0263 39.0378 30.5741 38.7044 30.2408C38.371 29.9074 37.9188 29.7201 37.4473 29.7201C36.9758 29.7201 36.5236 29.9074 36.1902 30.2408C35.8568 30.5741 35.6695 31.0263 35.6695 31.4978V34.1112H32.114V27.7467C29.093 27.2533 26.0372 27.0036 22.9762 27.0001C16.2256 26.9713 9.55069 28.4216 3.42066 31.2489C2.41174 31.7251 1.56058 32.4806 0.968169 33.4259C0.37576 34.3713 0.0669678 35.4667 0.0784331 36.5823V48.3334H19.6695ZM49.8918 51.8889H23.2251V37.6667H35.6695V38.4134C35.6695 38.8849 35.8568 39.3371 36.1902 39.6705C36.5236 40.0039 36.9758 40.1912 37.4473 40.1912C37.9188 40.1912 38.371 40.0039 38.7044 39.6705C39.0378 39.3371 39.2251 38.8849 39.2251 38.4134V37.6667H49.8918V51.8889Z" fill="#2F2E2E"/>
</svg>
