<svg width="64" height="64" viewBox="0 0 64 64" fill="none" xmlns="http://www.w3.org/2000/svg">
<path d="M34.6693 42.6667H29.3359C27.8693 42.6667 26.6693 41.4667 26.6693 40H8.02927V50.6667C8.02927 53.6 10.4293 56 13.3626 56H50.6693C53.6026 56 56.0026 53.6 56.0026 50.6667V40H37.3359C37.3359 41.4667 36.1359 42.6667 34.6693 42.6667ZM53.3359 18.6667H42.6693C42.6693 12.7733 37.8959 8 32.0026 8C26.1093 8 21.3359 12.7733 21.3359 18.6667H10.6693C7.73594 18.6667 5.33594 21.0667 5.33594 24V32C5.33594 34.96 7.70927 37.3333 10.6693 37.3333H26.6693V34.6667C26.6693 33.2 27.8693 32 29.3359 32H34.6693C36.1359 32 37.3359 33.2 37.3359 34.6667V37.3333H53.3359C56.2693 37.3333 58.6693 34.9333 58.6693 32V24C58.6693 21.0667 56.2693 18.6667 53.3359 18.6667ZM26.6693 18.6667C26.6693 15.7333 29.0693 13.3333 32.0026 13.3333C34.9359 13.3333 37.3359 15.7333 37.3359 18.6667H26.6426H26.6693Z" fill="#2F2E2E"/>
</svg>
