<svg width="66" height="66" viewBox="0 0 66 66" fill="none" xmlns="http://www.w3.org/2000/svg">
<g clip-path="url(#clip0_3001_9832)">
<path d="M54.6667 49.25C57.6458 49.25 60.0562 46.8125 60.0562 43.8333L60.0833 14.0417C60.0833 11.0625 57.6458 8.625 54.6667 8.625H11.3333C8.35417 8.625 5.91667 11.0625 5.91667 14.0417V43.8333C5.91667 46.8125 8.35417 49.25 11.3333 49.25H0.5C0.5 52.2292 2.9375 54.6667 5.91667 54.6667H60.0833C63.0625 54.6667 65.5 52.2292 65.5 49.25H54.6667ZM14.0417 14.0417H51.9583C53.4479 14.0417 54.6667 15.2604 54.6667 16.75V41.125C54.6667 42.6146 53.4479 43.8333 51.9583 43.8333H14.0417C12.5521 43.8333 11.3333 42.6146 11.3333 41.125V16.75C11.3333 15.2604 12.5521 14.0417 14.0417 14.0417ZM33 51.9583C31.5104 51.9583 30.2917 50.7396 30.2917 49.25C30.2917 47.7604 31.5104 46.5417 33 46.5417C34.4896 46.5417 35.7083 47.7604 35.7083 49.25C35.7083 50.7396 34.4896 51.9583 33 51.9583Z" fill="#2F2E2E"/>
</g>
<defs>
<clipPath id="clip0_3001_9832">
<rect width="65" height="65" fill="white" transform="translate(0.5 0.5)"/>
</clipPath>
</defs>
</svg>
