<svg width="64" height="64" viewBox="0 0 64 64" fill="none" xmlns="http://www.w3.org/2000/svg">
<g clip-path="url(#clip0_3001_9839)">
<path d="M21.3341 28.6934H19.7875C17.6768 28.6171 15.573 28.9754 13.6066 29.7461C11.6402 30.5168 9.85313 31.6833 8.35635 33.1734L7.92969 33.6712V48.3912H15.183V40.0356L16.1608 38.9334L16.6052 38.4179C18.9198 36.0401 21.8013 34.2904 24.9786 33.3334C23.3878 32.123 22.1332 30.5257 21.3341 28.6934Z" fill="#2F2E2E"/>
<path d="M55.7135 33.1199C54.2167 31.6299 52.4297 30.4633 50.4633 29.6926C48.4969 28.922 46.3931 28.5637 44.2824 28.6399C43.6351 28.6418 42.9882 28.6774 42.3446 28.7466C41.5306 30.4655 40.3102 31.9604 38.7891 33.1022C42.181 34.0406 45.2537 35.8842 47.678 38.4355L48.1224 38.9333L49.0824 40.0355V48.4088H56.0868V33.6177L55.7135 33.1199Z" fill="#2F2E2E"/>
<path d="M19.7357 25.2267H20.2868C20.0308 23.028 20.4165 20.8022 21.3976 18.818C22.3787 16.8338 23.9131 15.1759 25.8157 14.0445C25.126 12.9909 24.1746 12.1345 23.0545 11.5591C21.9344 10.9837 20.684 10.709 19.4259 10.7621C18.1678 10.8151 16.945 11.1939 15.8773 11.8615C14.8095 12.5291 13.9335 13.4626 13.3349 14.5705C12.7363 15.6783 12.4358 16.9227 12.4626 18.1817C12.4894 19.4406 12.8428 20.671 13.488 21.7524C14.1332 22.8338 15.0482 23.7291 16.1434 24.3506C17.2386 24.9721 18.4765 25.2985 19.7357 25.2978V25.2267Z" fill="#2F2E2E"/>
<path d="M43.4341 23.8934C43.4557 24.302 43.4557 24.7114 43.4341 25.12C43.7753 25.1741 44.1198 25.2038 44.4652 25.2089H44.803C46.0567 25.1421 47.2717 24.7517 48.3298 24.0759C49.3879 23.4001 50.253 22.4618 50.8408 21.3524C51.4286 20.243 51.7191 19.0003 51.6841 17.7453C51.6491 16.4903 51.2897 15.2658 50.641 14.1909C49.9922 13.116 49.0762 12.2274 47.9821 11.6116C46.8879 10.9958 45.653 10.6739 44.3975 10.677C43.142 10.6802 41.9088 11.0084 40.8178 11.6296C39.7268 12.2509 38.8152 13.1441 38.1719 14.2222C39.7809 15.2728 41.104 16.7063 42.0224 18.3943C42.9409 20.0822 43.4259 21.9717 43.4341 23.8934Z" fill="#2F2E2E"/>
<path d="M31.767 31.8577C36.1558 31.8577 39.7136 28.2998 39.7136 23.911C39.7136 19.5222 36.1558 15.9644 31.767 15.9644C27.3782 15.9644 23.8203 19.5222 23.8203 23.911C23.8203 28.2998 27.3782 31.8577 31.767 31.8577Z" fill="#2F2E2E"/>
<path d="M32.1938 36.0889C29.8721 35.9952 27.5555 36.3721 25.3832 37.197C23.211 38.0219 21.2281 39.2777 19.5538 40.8889L19.1094 41.3867V52.64C19.1163 53.0066 19.1954 53.3682 19.3421 53.7042C19.4888 54.0402 19.7003 54.344 19.9644 54.5982C20.2286 54.8524 20.5402 55.0521 20.8816 55.1859C21.2229 55.3197 21.5873 55.3849 21.9538 55.3778H42.3805C42.747 55.3849 43.1114 55.3197 43.4527 55.1859C43.7941 55.0521 44.1057 54.8524 44.3699 54.5982C44.634 54.344 44.8455 54.0402 44.9922 53.7042C45.1389 53.3682 45.218 53.0066 45.2249 52.64V41.4223L44.7983 40.8889C43.1348 39.2728 41.1588 38.0134 38.9914 37.188C36.824 36.3626 34.5109 35.9886 32.1938 36.0889Z" fill="#2F2E2E"/>
</g>
<defs>
<clipPath id="clip0_3001_9839">
<rect width="64" height="64" fill="white"/>
</clipPath>
</defs>
</svg>
