<svg width="64" height="64" viewBox="0 0 64 64" fill="none" xmlns="http://www.w3.org/2000/svg">
<g clip-path="url(#clip0_3001_9870)">
<path d="M31.9688 14C35.8347 14 38.9688 10.866 38.9688 7C38.9688 3.13401 35.8347 0 31.9688 0C28.1028 0 24.9688 3.13401 24.9688 7C24.9688 10.866 28.1028 14 31.9688 14Z" fill="#2F2E2E"/>
<path d="M49.3286 34.7375L48.0374 30.4363V30.4225L45.2299 21.065H45.2236L44.9099 20.0088C44.5654 18.8506 43.8562 17.8346 42.8877 17.112C41.9191 16.3895 40.7432 15.999 39.5349 15.9988H24.5349C23.3264 15.9984 22.1501 16.3886 21.1815 17.1113C20.2129 17.8339 19.5038 18.8503 19.1599 20.0088L18.8461 21.065H18.8386L16.0311 30.4225V30.4363L14.7349 34.7375C14.3449 36.0363 15.0224 37.445 16.3061 37.88C16.6241 37.9883 16.9607 38.0314 17.2958 38.0066C17.6308 37.9819 17.9574 37.8899 18.2561 37.7361C18.5548 37.5823 18.8194 37.3699 19.0342 37.1116C19.249 36.8533 19.4095 36.5543 19.5061 36.2325L22.7036 25.5763L22.9749 24.6725C23.0541 24.4517 23.2084 24.2657 23.4109 24.1471C23.6134 24.0286 23.8511 23.985 24.0825 24.024C24.3139 24.0631 24.5242 24.1822 24.6766 24.3606C24.8289 24.5391 24.9137 24.7654 24.9161 25C24.916 25.0677 24.9089 25.1351 24.8949 25.2013L19.4286 43.425C19.339 43.7236 19.3204 44.0391 19.3743 44.3461C19.4283 44.6532 19.5533 44.9434 19.7393 45.1935C19.9254 45.4437 20.1673 45.6469 20.4459 45.7869C20.7244 45.927 21.0318 45.9999 21.3436 46H24.9686V60.3363C24.9686 62.3938 26.2849 64 27.9686 64C29.6524 64 30.9686 62.3938 30.9686 60.3363V46H32.9686V60.3363C32.9686 62.3938 34.2849 64 35.9686 64C37.6524 64 38.9686 62.3938 38.9686 60.3363V46H42.7186C43.0305 46.0001 43.338 45.9273 43.6168 45.7874C43.8955 45.6474 44.1376 45.4442 44.3238 45.194C44.51 44.9438 44.6351 44.6536 44.6891 44.3464C44.7431 44.0393 44.7245 43.7237 44.6349 43.425L39.1674 25.1988C39.1536 25.1334 39.1469 25.0668 39.1474 25C39.1486 24.7647 39.2329 24.5373 39.3853 24.358C39.5376 24.1786 39.7484 24.0587 39.9805 24.0195C40.2125 23.9802 40.451 24.024 40.6539 24.1433C40.8568 24.2625 41.0112 24.4495 41.0899 24.6713L41.3611 25.575L44.5574 36.2313C44.6544 36.5526 44.8151 36.851 45.03 37.1088C45.2448 37.3666 45.5094 37.5786 45.8079 37.732C46.1064 37.8854 46.4327 37.9771 46.7675 38.0017C47.1022 38.0262 47.4384 37.9832 47.7561 37.875C49.0399 37.445 49.7174 36.0363 49.3286 34.7375Z" fill="#2F2E2E"/>
</g>
<defs>
<clipPath id="clip0_3001_9870">
<rect width="64" height="64" fill="white"/>
</clipPath>
</defs>
</svg>
