<svg width="64" height="64" viewBox="0 0 64 64" fill="none" xmlns="http://www.w3.org/2000/svg">
<path d="M31.9974 39.9999C20.2107 39.9999 10.6641 44.7733 10.6641 50.6666V55.9999H53.3307V50.6666C53.3307 44.7733 43.7841 39.9999 31.9974 39.9999ZM21.3307 23.9999C21.3307 26.8289 22.4545 29.542 24.4549 31.5424C26.4553 33.5428 29.1684 34.6666 31.9974 34.6666C34.8264 34.6666 37.5395 33.5428 39.5399 31.5424C41.5403 29.542 42.6641 26.8289 42.6641 23.9999M30.6641 5.33325C29.8641 5.33325 29.3307 5.89325 29.3307 6.66659V14.6666H26.6641V7.99992C26.6641 7.99992 20.6641 10.2933 20.6641 17.9999C20.6641 17.9999 18.6641 18.3733 18.6641 21.3333H45.3307C45.1974 18.3733 43.3307 17.9999 43.3307 17.9999C43.3307 10.2933 37.3307 7.99992 37.3307 7.99992V14.6666H34.6641V6.66659C34.6641 5.89325 34.1574 5.33325 33.3307 5.33325H30.6641Z" fill="#2F2E2E"/>
</svg>
