<svg width="310" height="219" viewBox="0 0 310 219" fill="none" xmlns="http://www.w3.org/2000/svg">
<path d="M111.09 50.4447C111.858 55.4616 111.121 60.5936 108.972 65.1911C106.823 69.7887 103.36 73.6451 99.0195 76.2725C94.6794 78.8999 89.6579 80.18 84.5904 79.951C79.5229 79.722 74.6372 77.994 70.5516 74.9858C66.466 71.9776 63.3641 67.8244 61.6384 63.0518C59.9128 58.2791 59.641 53.1015 60.8574 48.1743C62.0739 43.247 64.7238 38.7915 68.472 35.3716C72.2202 31.9518 76.8981 29.7212 81.9137 28.9623C85.2395 28.4541 88.6328 28.6068 91.8997 29.4116C95.1665 30.2164 98.2427 31.6576 100.952 33.6527C103.662 35.6479 105.952 38.1579 107.692 41.0391C109.431 43.9204 110.586 47.1165 111.09 50.4447Z" fill="#F5F5F5"/>
<path d="M105.067 51.3578C105.653 55.1821 105.092 59.0944 103.454 62.5995C101.817 66.1045 99.1769 69.0447 95.8686 71.0478C92.5602 73.0508 88.7322 74.0268 84.8692 73.852C81.0062 73.6773 77.2818 72.3597 74.1676 70.066C71.0534 67.7724 68.6894 64.6059 67.3748 60.9673C66.0602 57.3287 65.8541 53.3817 66.7827 49.6259C67.7113 45.87 69.7328 42.4743 72.5912 39.8686C75.4497 37.2628 79.0165 35.5642 82.8404 34.9878C87.9573 34.2104 93.1734 35.4982 97.3415 38.568C101.51 41.6378 104.288 46.2383 105.067 51.3578Z" fill="#EBEBEB"/>
<path d="M104.962 50.7516C104.849 50.7516 104.64 49.9357 104.101 48.5061C103.357 46.492 102.305 44.6057 100.982 42.9147C100.07 41.7632 99.034 40.7164 97.892 39.7933C96.5864 38.7363 95.1477 37.8555 93.6127 37.1735C91.9206 36.4221 90.1292 35.9179 88.2936 35.6765C87.3239 35.5509 86.3459 35.5008 85.3685 35.5268C84.3646 35.5527 83.3642 35.6553 82.376 35.8337C81.3889 36.0117 80.4163 36.2619 79.4658 36.5822C78.5421 36.9142 77.6465 37.3197 76.7875 37.7948C75.9526 38.2279 75.1544 38.7286 74.401 39.2918C73.6723 39.8287 72.9847 40.4192 72.3437 41.0583C71.151 42.2434 70.1151 43.5766 69.2615 45.0255C68.5267 46.2902 67.9298 47.6303 67.4809 49.0225C66.8423 51.0719 66.5268 53.2084 66.5458 55.355C66.5458 56.852 66.6505 57.7353 66.5458 57.7577C66.4411 57.7802 66.1642 56.9493 65.9697 55.3849C65.7221 53.1549 65.8921 50.8983 66.471 48.7306C67.3361 45.4732 69.0205 42.4918 71.3637 40.0703C72.7527 38.6403 74.3461 37.4245 76.0918 36.4625C77.0156 35.9542 77.9788 35.5211 78.972 35.1675C79.9958 34.8043 81.0464 34.5215 82.1142 34.3217C83.1844 34.1338 84.2672 34.0262 85.3535 33.9998C86.4067 33.9787 87.4598 34.0413 88.5031 34.187C89.5167 34.3253 90.5175 34.5456 91.4956 34.8457C92.4294 35.1227 93.34 35.4731 94.2187 35.8936C97.266 37.3345 99.8913 39.5359 101.842 42.2859C103.148 44.1112 104.106 46.1613 104.67 48.3339C105.044 49.8609 105.059 50.7366 104.962 50.7516Z" fill="#E0E0E0"/>
<path d="M89.6638 65.4898L90.2174 68.8506L87.2249 69.3446L86.6788 66.0811C83.6863 66.388 80.6938 65.9314 78.8235 64.9134L79.8634 60.9987C81.7846 61.9172 83.9117 62.3196 86.0354 62.1664L85.205 57.1588C81.7412 56.8968 77.8435 56.4103 77.1328 52.1138C76.6091 48.9326 78.4644 45.8263 83.1177 44.5014L82.5641 41.1705L85.5566 40.6765L86.0952 43.94C88.26 43.7062 90.4493 43.9883 92.4842 44.7634L91.5939 48.7006C90.0493 48.1158 88.4041 47.8436 86.7536 47.8997L87.599 53.0046C91.0478 53.2291 94.8931 53.7531 95.5889 57.9597C96.1051 61.0436 94.2797 64.12 89.6638 65.4898ZM84.4718 52.765L83.7686 48.506C82.2724 49.1273 81.7562 50.1003 81.9208 51.0884C82.0853 52.0764 83.0878 52.5105 84.4718 52.7126V52.765ZM90.8234 59.1349C90.6513 58.087 89.6862 57.6379 88.3246 57.4208L89.0129 61.5601C90.4568 60.9313 90.9879 60.0481 90.8234 59.0825V59.1349Z" fill="#E0E0E0"/>
<path d="M264.798 189.594C265.264 192.667 264.809 195.81 263.49 198.625C262.171 201.439 260.048 203.8 257.388 205.407C254.729 207.014 251.653 207.797 248.549 207.655C245.445 207.513 242.453 206.454 239.951 204.611C237.449 202.768 235.549 200.224 234.492 197.301C233.435 194.377 233.268 191.206 234.012 188.188C234.756 185.17 236.378 182.44 238.672 180.344C240.967 178.248 243.831 176.88 246.903 176.412C248.943 176.102 251.024 176.197 253.028 176.691C255.031 177.186 256.918 178.07 258.579 179.294C260.241 180.518 261.646 182.058 262.713 183.825C263.78 185.592 264.488 187.552 264.798 189.594Z" fill="#F5F5F5"/>
<path d="M261.094 190.147C261.448 192.489 261.101 194.883 260.096 197.027C259.091 199.171 257.473 200.969 255.447 202.194C253.421 203.418 251.077 204.014 248.713 203.906C246.348 203.798 244.069 202.991 242.163 201.587C240.257 200.183 238.809 198.245 238.004 196.018C237.198 193.791 237.07 191.375 237.637 189.076C238.203 186.776 239.439 184.697 241.186 183.099C242.934 181.502 245.116 180.459 247.456 180.102C249.01 179.865 250.597 179.937 252.124 180.314C253.651 180.69 255.089 181.364 256.355 182.297C257.622 183.23 258.692 184.404 259.505 185.751C260.318 187.098 260.858 188.592 261.094 190.147Z" fill="#EBEBEB"/>
<path d="M261.037 189.781C260.815 189.341 260.64 188.879 260.513 188.403C260.052 187.168 259.406 186.01 258.598 184.968C258.034 184.263 257.397 183.621 256.698 183.052C255.895 182.404 255.013 181.863 254.072 181.442C253.035 180.979 251.936 180.669 250.81 180.522C249.6 180.37 248.374 180.403 247.174 180.619C246.567 180.733 245.97 180.89 245.386 181.09C244.819 181.298 244.269 181.549 243.74 181.839C243.219 182.11 242.718 182.42 242.244 182.767C241.798 183.101 241.375 183.467 240.98 183.86C239.6 185.225 238.573 186.905 237.987 188.755C237.595 190.013 237.401 191.323 237.411 192.64C237.468 193.137 237.468 193.64 237.411 194.137C237.193 193.681 237.073 193.183 237.059 192.677C236.908 191.308 237.012 189.922 237.366 188.591C237.616 187.668 237.97 186.776 238.421 185.933C239.243 184.441 240.36 183.132 241.705 182.086C242.202 181.706 242.727 181.366 243.276 181.068C243.841 180.752 244.432 180.484 245.042 180.267C245.672 180.048 246.317 179.875 246.972 179.751C247.627 179.634 248.29 179.569 248.955 179.556C249.602 179.54 250.25 179.578 250.892 179.668C251.51 179.755 252.121 179.89 252.718 180.072C253.289 180.244 253.847 180.459 254.386 180.716C256.26 181.589 257.876 182.933 259.077 184.616C259.884 185.744 260.473 187.013 260.812 188.359C260.984 188.812 261.06 189.296 261.037 189.781Z" fill="#E0E0E0"/>
<path d="M251.642 198.808L251.986 200.874L250.146 201.181L249.809 199.175C248.165 199.384 246.495 199.124 244.991 198.426L245.627 196.016C246.802 196.592 248.107 196.85 249.413 196.764L248.904 193.695C246.779 193.538 244.415 193.231 243.951 190.597C243.63 188.65 244.767 186.742 247.617 185.926L247.28 183.882L249.121 183.576L249.45 185.582C250.779 185.439 252.122 185.614 253.37 186.091L252.831 188.508C251.878 188.143 250.86 187.974 249.839 188.014L250.355 191.143C252.48 191.285 254.844 191.592 255.263 194.19C255.6 196.098 254.47 197.977 251.642 198.808ZM248.455 190.978L248.021 188.366C247.086 188.748 246.787 189.347 246.891 189.953C246.996 190.559 247.602 190.859 248.455 190.978ZM252.353 194.893C252.248 194.249 251.657 193.987 250.856 193.838L251.275 196.383C252.128 196.023 252.45 195.484 252.338 194.893H252.353Z" fill="#E0E0E0"/>
<path d="M42.5364 204.961C43.1745 209.137 42.5598 213.41 40.7701 217.237C38.9804 221.064 36.0962 224.274 32.4825 226.461C28.8688 228.647 24.688 229.712 20.4692 229.52C16.2504 229.329 12.1833 227.889 8.78259 225.384C5.38185 222.878 2.80034 219.42 1.36477 215.446C-0.0707999 211.473 -0.295901 207.162 0.717953 203.06C1.73181 198.959 3.93904 195.25 7.06032 192.404C10.1816 189.557 14.0766 187.702 18.2525 187.071C23.8435 186.223 29.5425 187.631 34.0963 190.986C38.6501 194.34 41.6859 199.367 42.5364 204.961Z" fill="#F5F5F5"/>
<path d="M37.5133 205.717C37.9996 208.899 37.5314 212.155 36.168 215.071C34.8045 217.987 32.6071 220.433 29.8537 222.1C27.1003 223.766 23.9148 224.578 20.7001 224.432C17.4855 224.286 14.3864 223.19 11.7948 221.281C9.20326 219.373 7.23579 216.738 6.14138 213.71C5.04698 210.683 4.87483 207.398 5.64672 204.273C6.41861 201.147 8.09985 198.321 10.4777 196.151C12.8555 193.982 15.8231 192.567 19.0048 192.086C23.2655 191.44 27.6084 192.512 31.079 195.068C34.5496 197.624 36.8639 201.454 37.5133 205.717Z" fill="#EBEBEB"/>
<path d="M37.4356 205.208C37.1211 204.612 36.8703 203.985 36.6875 203.336C36.0724 201.677 35.207 200.122 34.1214 198.726C33.3627 197.765 32.4996 196.891 31.5479 196.121C30.4596 195.244 29.2627 194.512 27.9868 193.943C27.2985 193.64 26.5883 193.39 25.8622 193.194C24.3213 192.751 22.7218 192.547 21.1191 192.588C20.2835 192.61 19.4507 192.695 18.6279 192.842C16.9994 193.138 15.4269 193.686 13.9671 194.467C12.6071 195.196 11.3598 196.119 10.2639 197.206C8.39738 199.06 7.01074 201.342 6.22405 203.853C5.69356 205.548 5.42858 207.316 5.43853 209.092C5.50896 209.759 5.50896 210.432 5.43853 211.099C5.14546 210.48 4.98492 209.807 4.96721 209.122C4.76027 207.266 4.90237 205.387 5.38616 203.583C6.09418 200.868 7.49679 198.384 9.45593 196.375C10.6119 195.187 11.9381 194.178 13.391 193.381C14.161 192.957 14.9641 192.597 15.7925 192.303C17.4984 191.692 19.2925 191.364 21.1041 191.33C21.9822 191.315 22.8601 191.367 23.73 191.487C24.5682 191.606 25.3961 191.789 26.2063 192.034C26.9745 192.271 27.7245 192.564 28.4507 192.91C29.8017 193.545 31.0601 194.36 32.1913 195.335C33.1684 196.187 34.0444 197.149 34.8022 198.202C35.8991 199.711 36.7058 201.412 37.1812 203.217C37.4034 203.855 37.49 204.534 37.4356 205.208Z" fill="#E0E0E0"/>
<path d="M24.6945 217.438L25.1583 220.238L22.6596 220.649L22.2107 217.932C19.9807 218.225 17.7133 217.888 15.6647 216.959L16.5325 213.696C18.1331 214.458 19.9037 214.793 21.6721 214.669L20.9838 210.492C18.096 210.283 14.8492 209.871 14.2507 206.3C13.8168 203.651 15.3579 201.061 19.2332 199.961L18.7768 197.228L21.2756 196.817L21.7244 199.541C23.5264 199.343 25.3496 199.576 27.0436 200.223L26.2954 203.501C25.0081 203.016 23.6379 202.79 22.2631 202.835L22.9663 207.079C25.8391 207.274 29.041 207.693 29.6246 211.211C30.0585 213.778 28.5323 216.338 24.6945 217.438ZM20.3703 206.817L19.7868 203.269C18.515 203.793 18.111 204.601 18.2457 205.425C18.3803 206.248 19.2182 206.675 20.3703 206.839V206.817ZM25.6595 212.146C25.5174 211.271 24.7169 210.919 23.5798 210.724L24.1483 214.167C25.3528 213.696 25.7942 212.947 25.6595 212.146Z" fill="#E0E0E0"/>
<path d="M235.65 190.447H290.891V179.302H235.65V190.447Z" fill="#E1C8A8"/>
<path d="M287.333 179.489C287.206 179.489 287.094 181.914 287.094 184.893C287.094 187.872 287.206 190.297 287.333 190.297C287.46 190.297 287.573 187.88 287.573 184.893C287.573 181.906 287.468 179.489 287.333 179.489Z" fill="#263238"/>
<path d="M282.216 179.489C282.081 179.489 281.977 181.914 281.977 184.893C281.977 187.872 282.081 190.297 282.216 190.297C282.351 190.297 282.455 187.88 282.455 184.893C282.455 181.906 282.343 179.489 282.216 179.489Z" fill="#263238"/>
<path d="M277.146 179.489C277.011 179.489 276.906 181.914 276.906 184.893C276.906 187.872 277.011 190.297 277.146 190.297C277.28 190.297 277.385 187.88 277.385 184.893C277.385 181.906 277.28 179.489 277.146 179.489Z" fill="#263238"/>
<path d="M272.114 179.489C271.98 179.489 271.875 181.914 271.875 184.893C271.875 187.872 271.98 190.297 272.114 190.297C272.249 190.297 272.354 187.88 272.354 184.893C272.354 181.906 272.257 179.489 272.114 179.489Z" fill="#263238"/>
<path d="M267.083 179.489C266.948 179.489 266.844 181.914 266.844 184.893C266.844 187.872 266.948 190.297 267.083 190.297C267.218 190.297 267.323 187.88 267.323 184.893C267.323 181.906 267.218 179.489 267.083 179.489Z" fill="#263238"/>
<path d="M262.052 179.489C261.917 179.489 261.812 181.914 261.812 184.893C261.812 187.872 261.917 190.297 262.052 190.297C262.187 190.297 262.291 187.88 262.291 184.893C262.291 181.906 262.187 179.489 262.052 179.489Z" fill="#263238"/>
<path d="M257.013 179.489C256.878 179.489 256.773 181.914 256.773 184.893C256.773 187.872 256.878 190.297 257.013 190.297C257.148 190.297 257.252 187.88 257.252 184.893C257.252 181.906 257.148 179.489 257.013 179.489Z" fill="#263238"/>
<path d="M251.982 179.489C251.847 179.489 251.742 181.914 251.742 184.893C251.742 187.872 251.847 190.297 251.982 190.297C252.116 190.297 252.221 187.88 252.221 184.893C252.221 181.906 252.116 179.489 251.982 179.489Z" fill="#263238"/>
<path d="M246.943 179.489C246.808 179.489 246.703 181.914 246.703 184.893C246.703 187.872 246.808 190.297 246.943 190.297C247.077 190.297 247.182 187.88 247.182 184.893C247.182 181.906 247.077 179.489 246.943 179.489Z" fill="#263238"/>
<path d="M241.903 179.489C241.769 179.489 241.664 181.914 241.664 184.893C241.664 187.872 241.769 190.297 241.903 190.297C242.038 190.297 242.143 187.88 242.143 184.893C242.143 181.906 242.038 179.489 241.903 179.489Z" fill="#263238"/>
<path d="M236.864 179.489C236.73 179.489 236.625 181.914 236.625 184.893C236.625 187.872 236.73 190.297 236.864 190.297C236.999 190.297 237.104 187.88 237.104 184.893C237.104 181.906 236.992 179.489 236.864 179.489Z" fill="#263238"/>
<g opacity="0.3">
<path d="M289.992 179.317C272.248 181.693 254.267 181.693 236.523 179.317H289.992Z" fill="black"/>
</g>
<path d="M235.602 179.339C235.602 179.474 247.946 179.579 263.17 179.579C278.394 179.579 290.745 179.474 290.745 179.339C290.745 179.204 278.401 179.099 263.17 179.099C247.938 179.099 235.602 179.204 235.602 179.339Z" fill="#263238"/>
<path d="M234.415 201.413H289.656V190.267H234.415V201.413Z" fill="#E1C8A8"/>
<path d="M286.107 190.454C285.972 190.454 285.867 192.872 285.867 195.851C285.867 198.83 285.972 201.256 286.107 201.256C286.241 201.256 286.346 198.838 286.346 195.851C286.346 192.865 286.234 190.454 286.107 190.454Z" fill="#263238"/>
<path d="M280.974 190.454C280.839 190.454 280.734 192.872 280.734 195.851C280.734 198.83 280.839 201.256 280.974 201.256C281.108 201.256 281.213 198.838 281.213 195.851C281.213 192.865 281.108 190.454 280.974 190.454Z" fill="#263238"/>
<path d="M275.903 190.454C275.776 190.454 275.664 192.872 275.664 195.851C275.664 198.83 275.776 201.256 275.903 201.256C276.031 201.256 276.143 198.838 276.143 195.851C276.143 192.865 276.038 190.454 275.903 190.454Z" fill="#263238"/>
<path d="M270.872 190.454C270.738 190.454 270.633 192.872 270.633 195.851C270.633 198.83 270.738 201.256 270.872 201.256C271.007 201.256 271.112 198.838 271.112 195.851C271.112 192.865 271.007 190.454 270.872 190.454Z" fill="#263238"/>
<path d="M265.833 190.454C265.698 190.454 265.594 192.872 265.594 195.851C265.594 198.83 265.698 201.256 265.833 201.256C265.968 201.256 266.073 198.838 266.073 195.851C266.073 192.865 265.968 190.454 265.833 190.454Z" fill="#263238"/>
<path d="M260.802 190.454C260.667 190.454 260.562 192.872 260.562 195.851C260.562 198.83 260.667 201.256 260.802 201.256C260.937 201.256 261.041 198.838 261.041 195.851C261.041 192.865 260.937 190.454 260.802 190.454Z" fill="#263238"/>
<path d="M255.81 190.454C255.675 190.454 255.57 192.872 255.57 195.851C255.57 198.83 255.675 201.256 255.81 201.256C255.944 201.256 256.049 198.838 256.049 195.851C256.049 192.865 255.914 190.454 255.81 190.454Z" fill="#263238"/>
<path d="M250.739 190.454C250.605 190.454 250.5 192.872 250.5 195.851C250.5 198.83 250.605 201.256 250.739 201.256C250.874 201.256 250.979 198.838 250.979 195.851C250.979 192.865 250.874 190.454 250.739 190.454Z" fill="#263238"/>
<path d="M245.7 190.454C245.566 190.454 245.461 192.872 245.461 195.851C245.461 198.83 245.566 201.256 245.7 201.256C245.835 201.256 245.94 198.838 245.94 195.851C245.94 192.865 245.835 190.454 245.7 190.454Z" fill="#263238"/>
<path d="M240.661 190.454C240.527 190.454 240.422 192.872 240.422 195.851C240.422 198.83 240.527 201.256 240.661 201.256C240.796 201.256 240.901 198.838 240.901 195.851C240.901 192.865 240.833 190.454 240.661 190.454Z" fill="#263238"/>
<path d="M235.599 190.454C235.464 190.454 235.359 192.872 235.359 195.851C235.359 198.83 235.464 201.256 235.599 201.256C235.733 201.256 235.838 198.838 235.838 195.851C235.838 192.865 235.763 190.454 235.599 190.454Z" fill="#263238"/>
<g opacity="0.3">
<path d="M288.765 190.275C271.019 192.651 253.035 192.651 235.289 190.275H288.765Z" fill="black"/>
</g>
<path d="M234.391 190.297C234.391 190.432 246.735 190.537 261.966 190.537C277.198 190.537 289.534 190.432 289.534 190.297C289.534 190.163 277.198 190.058 261.966 190.058C246.735 190.058 234.391 190.207 234.391 190.297Z" fill="#263238"/>
<path d="M239.657 212.199H294.898V201.054H239.657V212.199Z" fill="#E1C8A8"/>
<path d="M291.341 201.233C291.206 201.233 291.102 203.658 291.102 206.637C291.102 209.616 291.206 212.042 291.341 212.042C291.476 212.042 291.58 209.624 291.58 206.637C291.58 203.651 291.468 201.233 291.341 201.233Z" fill="#263238"/>
<path d="M286.216 201.233C286.081 201.233 285.977 203.658 285.977 206.637C285.977 209.616 286.081 212.042 286.216 212.042C286.351 212.042 286.455 209.624 286.455 206.637C286.455 203.651 286.351 201.233 286.216 201.233Z" fill="#263238"/>
<path d="M281.153 201.233C281.026 201.233 280.914 203.658 280.914 206.637C280.914 209.616 281.026 212.042 281.153 212.042C281.281 212.042 281.393 209.624 281.393 206.637C281.393 203.651 281.288 201.233 281.153 201.233Z" fill="#263238"/>
<path d="M276.122 201.233C275.995 201.233 275.883 203.658 275.883 206.637C275.883 209.616 275.995 212.042 276.122 212.042C276.249 212.042 276.362 209.624 276.362 206.637C276.362 203.651 276.257 201.233 276.122 201.233Z" fill="#263238"/>
<path d="M271.091 201.233C270.964 201.233 270.852 203.658 270.852 206.637C270.852 209.616 270.964 212.042 271.091 212.042C271.218 212.042 271.33 209.624 271.33 206.637C271.33 203.651 271.226 201.233 271.091 201.233Z" fill="#263238"/>
<path d="M266.052 201.233C265.925 201.233 265.812 203.658 265.812 206.637C265.812 209.616 265.925 212.042 266.052 212.042C266.179 212.042 266.291 209.624 266.291 206.637C266.291 203.651 266.187 201.233 266.052 201.233Z" fill="#263238"/>
<path d="M261.036 201.233C260.902 201.233 260.797 203.658 260.797 206.637C260.797 209.616 260.902 212.042 261.036 212.042C261.171 212.042 261.276 209.624 261.276 206.637C261.276 203.651 261.148 201.233 261.036 201.233Z" fill="#263238"/>
<path d="M255.974 201.233C255.839 201.233 255.734 203.658 255.734 206.637C255.734 209.616 255.839 212.042 255.974 212.042C256.108 212.042 256.213 209.624 256.213 206.637C256.213 203.651 256.108 201.233 255.974 201.233Z" fill="#263238"/>
<path d="M250.943 201.233C250.808 201.233 250.703 203.658 250.703 206.637C250.703 209.616 250.808 212.042 250.943 212.042C251.077 212.042 251.182 209.624 251.182 206.637C251.182 203.651 251.077 201.233 250.943 201.233Z" fill="#263238"/>
<path d="M245.911 201.233C245.777 201.233 245.672 203.658 245.672 206.637C245.672 209.616 245.777 212.042 245.911 212.042C246.046 212.042 246.151 209.624 246.151 206.637C246.151 203.651 246.076 201.233 245.911 201.233Z" fill="#263238"/>
<path d="M240.872 201.233C240.738 201.233 240.633 203.658 240.633 206.637C240.633 209.616 240.738 212.042 240.872 212.042C241.007 212.042 241.112 209.624 241.112 206.637C241.112 203.651 241.007 201.233 240.872 201.233Z" fill="#263238"/>
<g opacity="0.3">
<path d="M294.015 201.061C276.269 203.438 258.285 203.438 240.539 201.061H294.015Z" fill="black"/>
</g>
<path d="M239.633 201.083C239.633 201.218 251.977 201.323 267.208 201.323C282.44 201.323 294.777 201.218 294.777 201.083C294.777 200.949 282.44 200.844 267.208 200.844C251.977 200.844 239.633 200.956 239.633 201.083Z" fill="#263238"/>
<path d="M233.181 222.835H288.422V212.117H233.181V222.835Z" fill="#E1C8A8"/>
<path d="M284.88 212.296C284.745 212.296 284.641 214.616 284.641 217.491C284.641 220.365 284.745 222.685 284.88 222.685C285.015 222.685 285.119 220.358 285.119 217.491C285.119 214.624 284.985 212.296 284.88 212.296Z" fill="#263238"/>
<path d="M279.739 212.296C279.605 212.296 279.5 214.616 279.5 217.491C279.5 220.365 279.605 222.685 279.739 222.685C279.874 222.685 279.979 220.358 279.979 217.491C279.979 214.624 279.882 212.296 279.739 212.296Z" fill="#263238"/>
<path d="M274.677 212.296C274.55 212.296 274.438 214.616 274.438 217.491C274.438 220.365 274.55 222.685 274.677 222.685C274.804 222.685 274.916 220.358 274.916 217.491C274.916 214.624 274.812 212.296 274.677 212.296Z" fill="#263238"/>
<path d="M269.646 212.296C269.518 212.296 269.406 214.616 269.406 217.491C269.406 220.365 269.518 222.685 269.646 222.685C269.773 222.685 269.885 220.358 269.885 217.491C269.885 214.624 269.78 212.296 269.646 212.296Z" fill="#263238"/>
<path d="M264.614 212.296C264.487 212.296 264.375 214.616 264.375 217.491C264.375 220.365 264.487 222.685 264.614 222.685C264.742 222.685 264.854 220.358 264.854 217.491C264.854 214.624 264.779 212.296 264.614 212.296Z" fill="#263238"/>
<path d="M259.583 212.296C259.448 212.296 259.344 214.616 259.344 217.491C259.344 220.365 259.448 222.685 259.583 222.685C259.718 222.685 259.823 220.358 259.823 217.491C259.823 214.624 259.718 212.296 259.583 212.296Z" fill="#263238"/>
<path d="M254.544 212.296C254.409 212.296 254.305 214.616 254.305 217.491C254.305 220.365 254.409 222.685 254.544 222.685C254.679 222.685 254.783 220.358 254.783 217.491C254.783 214.624 254.679 212.296 254.544 212.296Z" fill="#263238"/>
<path d="M249.513 212.296C249.378 212.296 249.273 214.616 249.273 217.491C249.273 220.365 249.378 222.685 249.513 222.685C249.648 222.685 249.752 220.358 249.752 217.491C249.752 214.624 249.648 212.296 249.513 212.296Z" fill="#263238"/>
<path d="M244.466 212.296C244.331 212.296 244.227 214.616 244.227 217.491C244.227 220.365 244.331 222.685 244.466 222.685C244.601 222.685 244.705 220.358 244.705 217.491C244.705 214.624 244.571 212.296 244.466 212.296Z" fill="#263238"/>
<path d="M239.435 212.296C239.3 212.296 239.195 214.616 239.195 217.491C239.195 220.365 239.3 222.685 239.435 222.685C239.569 222.685 239.674 220.358 239.674 217.491C239.674 214.624 239.569 212.296 239.435 212.296Z" fill="#263238"/>
<path d="M234.396 212.296C234.261 212.296 234.156 214.616 234.156 217.491C234.156 220.365 234.261 222.685 234.396 222.685C234.53 222.685 234.635 220.358 234.635 217.491C234.635 214.624 234.53 212.296 234.396 212.296Z" fill="#263238"/>
<g opacity="0.3">
<path d="M287.546 212.124C269.85 215.163 251.766 215.163 234.07 212.124H287.546Z" fill="black"/>
</g>
<path d="M233.172 212.146C233.172 212.281 245.516 212.386 260.748 212.386C275.979 212.386 288.316 212.281 288.316 212.146C288.316 212.012 276.009 211.914 260.748 211.914C245.486 211.914 233.172 212.012 233.172 212.146Z" fill="#263238"/>
<path d="M288.817 244.101C288.817 244.101 288.817 244.041 288.817 243.921C288.817 243.801 288.817 243.599 288.817 243.382C288.817 242.881 288.817 242.184 288.817 241.294C288.817 239.452 288.78 236.803 288.757 233.532V233.412H288.877H291.922L291.795 233.547C291.795 230.41 291.795 226.81 291.795 222.82L291.959 222.985H288.219V222.813C288.219 219.497 288.219 215.904 288.219 212.176V211.997H294.87L294.69 212.176C294.69 208.209 294.69 204.399 294.69 200.821L294.855 200.994H289.453V200.829C289.453 196.952 289.453 193.449 289.453 190.44V190.305H290.949L290.83 190.432C290.83 186.974 290.83 184.204 290.83 182.273C290.83 181.338 290.83 180.604 290.83 180.08C290.83 179.841 290.83 179.661 290.83 179.511C290.823 179.447 290.823 179.381 290.83 179.317C290.839 179.381 290.839 179.447 290.83 179.511C290.83 179.653 290.83 179.841 290.83 180.08C290.83 180.604 290.83 181.33 290.882 182.266C290.882 184.204 290.964 186.974 291.024 190.425V190.552H289.528L289.655 190.425C289.655 193.419 289.655 196.937 289.693 200.814L289.528 200.657H294.765H294.937V200.829C294.937 204.407 294.937 208.217 294.937 212.184V212.364H288.279L288.466 212.184C288.466 215.927 288.466 219.504 288.466 222.82L288.294 222.648H292.034V222.813C292.034 226.78 292.034 230.403 292.034 233.539V233.674H288.855L288.974 233.554C288.974 236.84 288.937 239.475 288.922 241.316C288.922 242.207 288.922 242.903 288.922 243.405C288.922 243.622 288.922 243.801 288.922 243.943C288.896 244.001 288.861 244.055 288.817 244.101Z" fill="#263238"/>
<path d="M309.051 86.6578C309.208 91.1524 308.03 95.5926 305.665 99.417C303.3 103.241 299.854 106.278 295.764 108.144C291.674 110.009 287.123 110.619 282.687 109.897C278.25 109.174 274.127 107.152 270.839 104.085C267.552 101.019 265.246 97.0456 264.215 92.6682C263.184 88.2908 263.474 83.7058 265.047 79.493C266.62 75.2802 269.407 71.6287 273.054 69.0003C276.701 66.3719 281.046 64.8845 285.538 64.7264C291.562 64.5162 297.424 66.7085 301.833 70.8212C306.242 74.9339 308.839 80.6303 309.051 86.6578Z" fill="#E1C8A9"/>
<g opacity="0.1">
<path d="M285.536 64.7263C279.512 64.939 273.819 67.537 269.71 71.9489C265.601 76.3608 263.411 82.2252 263.623 88.2521C263.623 88.2521 279.603 88.4093 283.217 81.8374C286.83 75.2654 285.536 64.7263 285.536 64.7263Z" fill="white"/>
</g>
<path d="M303.241 86.5007C303.36 89.9167 302.464 93.2913 300.667 96.1979C298.869 99.1045 296.25 101.413 293.142 102.83C290.033 104.248 286.575 104.712 283.203 104.163C279.831 103.614 276.697 102.077 274.199 99.746C271.7 97.4153 269.948 94.3957 269.164 91.0688C268.38 87.7419 268.6 84.2573 269.795 81.0554C270.991 77.8535 273.109 75.0782 275.88 73.0803C278.652 71.0825 281.954 69.9518 285.368 69.8313C287.636 69.7513 289.897 70.119 292.022 70.9135C294.148 71.7079 296.096 72.9136 297.756 74.4616C299.416 76.0096 300.754 77.8695 301.695 79.9352C302.636 82.001 303.162 84.2319 303.241 86.5007Z" fill="#FF725E"/>
<path d="M303.241 86.5007C303.36 89.9167 302.464 93.2913 300.667 96.1979C298.869 99.1045 296.25 101.413 293.142 102.83C290.033 104.248 286.575 104.712 283.203 104.163C279.831 103.614 276.697 102.077 274.199 99.746C271.7 97.4153 269.948 94.3957 269.164 91.0688C268.38 87.7419 268.6 84.2573 269.795 81.0554C270.991 77.8535 273.109 75.0782 275.88 73.0803C278.652 71.0825 281.954 69.9518 285.368 69.8313C287.636 69.7513 289.897 70.119 292.022 70.9135C294.148 71.7079 296.096 72.9136 297.756 74.4616C299.416 76.0096 300.754 77.8695 301.695 79.9352C302.636 82.001 303.162 84.2319 303.241 86.5007Z" fill="#8F7657"/>
<path d="M303.739 87.2042C303.852 90.5739 302.964 93.9015 301.188 96.7665C299.412 99.6315 296.826 101.905 293.758 103.301C290.691 104.696 287.278 105.15 283.953 104.605C280.627 104.06 277.538 102.541 275.075 100.24C272.612 97.9392 270.886 94.9592 270.116 91.677C269.345 88.3948 269.564 84.9577 270.746 81.8001C271.927 78.6425 274.017 75.9062 276.753 73.9371C279.488 71.9679 282.745 70.8542 286.113 70.7369C288.351 70.6589 290.583 71.0231 292.681 71.8087C294.778 72.5943 296.7 73.7858 298.337 75.3152C299.974 76.8446 301.294 78.6818 302.221 80.7218C303.148 82.7618 303.663 84.9646 303.739 87.2042Z" fill="#FCE3C3"/>
<path d="M287.333 86.2986L287.183 81.9423C287.981 82.0088 288.767 82.1851 289.517 82.4662C289.905 82.6458 290.276 82.8613 290.624 83.11L290.677 82.9752L291.298 81.3809L291.44 81.0141L290.632 80.2207L290.265 80.4078C289.271 79.9209 288.185 79.6481 287.078 79.6069L286.996 77.2042L286.248 76.6278V77.2341H285.223L285.305 79.6818C281.954 80.1234 280.42 82.0995 280.495 84.3001C280.6 87.2941 283.203 87.9903 285.619 88.4918L285.769 92.8107C284.197 92.7406 282.678 92.221 281.393 91.3137L280.495 93.5592C282.085 94.6219 283.961 95.1754 285.874 95.1461L285.934 96.9575L285.096 97.0024L285.956 97.5488L287.729 97.4814L287.639 95.0638C291.021 94.5997 292.569 92.6385 292.495 90.4379C292.39 87.4663 289.749 86.8001 287.333 86.2986ZM285.545 85.9094C284.28 85.5875 283.338 85.1609 283.3 84.1055C283.263 83.0501 283.891 82.354 285.41 82.062L285.545 85.9094ZM287.557 92.7359L287.422 88.9184C288.732 89.2403 289.704 89.667 289.742 90.7598C289.771 91.6879 289.128 92.4439 287.557 92.7359Z" fill="#FF725E"/>
<path d="M287.333 86.2986L287.183 81.9423C287.981 82.0088 288.767 82.1851 289.517 82.4662C289.905 82.6458 290.276 82.8613 290.624 83.11L290.677 82.9752L291.298 81.3809L291.44 81.0141L290.632 80.2207L290.265 80.4078C289.271 79.9209 288.185 79.6481 287.078 79.6069L286.996 77.2042L286.248 76.6278V77.2341H285.223L285.305 79.6818C281.954 80.1234 280.42 82.0995 280.495 84.3001C280.6 87.2941 283.203 87.9903 285.619 88.4918L285.769 92.8107C284.197 92.7406 282.678 92.221 281.393 91.3137L280.495 93.5592C282.085 94.6219 283.961 95.1754 285.874 95.1461L285.934 96.9575L285.096 97.0024L285.956 97.5488L287.729 97.4814L287.639 95.0638C291.021 94.5997 292.569 92.6385 292.495 90.4379C292.39 87.4663 289.749 86.8001 287.333 86.2986ZM285.545 85.9094C284.28 85.5875 283.338 85.1609 283.3 84.1055C283.263 83.0501 283.891 82.354 285.41 82.062L285.545 85.9094ZM287.557 92.7359L287.422 88.9184C288.732 89.2403 289.704 89.667 289.742 90.7598C289.771 91.6879 289.128 92.4439 287.557 92.7359Z" fill="#8F7657"/>
<path d="M286.895 94.5248L286.978 96.9499L285.204 97.0098L285.122 94.6146C283.216 94.6243 281.351 94.0639 279.766 93.0053L280.663 90.7597C281.953 91.6597 283.47 92.1785 285.04 92.2568L284.89 87.9303C282.474 87.4363 279.878 86.7477 279.773 83.7461C279.691 81.5006 281.224 79.5619 284.584 79.1203L284.494 76.6727L286.267 76.6128L286.349 79.0155C287.899 79.0266 289.421 79.4255 290.778 80.1757L289.97 82.4213C288.876 81.8305 287.671 81.4737 286.431 81.3733L286.588 85.7372C289.005 86.2387 291.646 86.9049 291.75 89.9064C291.825 92.1071 290.269 94.0607 286.895 94.5248ZM284.8 85.3405L284.666 81.4931C283.17 81.785 282.519 82.5859 282.549 83.5366C282.579 84.4872 283.536 85.0186 284.8 85.3405ZM288.99 90.1909C288.953 89.1355 287.987 88.6938 286.678 88.3495L286.813 92.1744C288.376 91.8825 289.02 91.119 288.99 90.1909Z" fill="#E1C8A8"/>
<path d="M286.994 105.026H287.136L287.54 104.981L288.206 104.922C288.51 104.901 288.813 104.858 289.111 104.794L290.233 104.577C290.449 104.539 290.662 104.484 290.869 104.413L291.542 104.211C291.796 104.147 292.046 104.069 292.291 103.978L293.039 103.679C293.293 103.567 293.562 103.477 293.787 103.342L294.587 102.923C295.762 102.285 296.864 101.519 297.872 100.64L298.657 99.8916C298.792 99.7643 298.926 99.6371 299.054 99.5024L299.428 99.0607C299.667 98.7688 299.936 98.4769 300.176 98.1625C300.415 97.8481 300.632 97.5113 300.864 97.182L301.036 96.9275C301.093 96.8428 301.145 96.7554 301.193 96.6655L301.492 96.1265L301.799 95.5801C301.901 95.3938 301.991 95.2014 302.068 95.0038C302.233 94.6145 302.42 94.2553 302.577 93.8286L302.981 92.5786C304.017 89.059 303.886 85.2986 302.607 81.8599C302.443 81.4457 302.278 81.0415 302.113 80.6473C301.934 80.2505 301.717 79.8987 301.522 79.502C301.432 79.3111 301.329 79.1261 301.216 78.9481C301.103 78.776 300.991 78.5963 300.871 78.4242L300.535 77.9077L300.363 77.6532L300.176 77.4212L299.428 76.4855C299.173 76.1861 298.889 75.9166 298.62 75.6397L298.223 75.228L297.797 74.8612L296.959 74.1127C295.891 73.3061 294.737 72.6207 293.517 72.0693L292.702 71.7025C292.433 71.5902 292.156 71.5154 291.894 71.4256L291.146 71.1711C290.899 71.0887 290.645 71.0513 290.398 70.9914L289.71 70.8417C289.499 70.7851 289.283 70.7451 289.066 70.7219L287.929 70.5797C287.629 70.5398 287.327 70.5198 287.024 70.5199H286.35H285.939H285.797H287.024C287.329 70.5115 287.633 70.524 287.936 70.5573L289.081 70.6845C289.298 70.7087 289.513 70.7462 289.725 70.7968L290.42 70.9465C290.652 71.0064 290.907 71.0363 291.168 71.1187L291.916 71.3657C292.178 71.463 292.455 71.5304 292.724 71.6426L293.555 72.0019C294.784 72.5527 295.948 73.238 297.026 74.0454L297.879 74.7939C298.021 74.9136 298.171 75.0334 298.305 75.1606L298.709 75.5723C298.979 75.8493 299.271 76.1187 299.525 76.4181L300.273 77.3613L300.467 77.6008L300.64 77.8553C300.752 78.0275 300.871 78.1996 300.984 78.3793L301.335 78.9032C301.455 79.0754 301.537 79.2775 301.642 79.4646C301.837 79.8389 302.053 80.2131 302.241 80.6098C302.428 81.0065 302.57 81.4257 302.742 81.8374C303.358 83.5694 303.716 85.3828 303.804 87.2192C303.849 89.0599 303.617 90.8967 303.116 92.6684C302.981 93.0876 302.839 93.5067 302.704 93.9184C302.57 94.3301 302.36 94.7194 302.188 95.1086C302.109 95.308 302.019 95.5029 301.919 95.6924L301.612 96.2388L301.305 96.7852L301.148 97.0547L300.969 97.3017L300.28 98.2972C300.041 98.6116 299.772 98.9035 299.532 99.1955L299.158 99.6371L298.754 100.034L297.954 100.782C296.936 101.666 295.822 102.432 294.632 103.065L293.832 103.484C293.57 103.612 293.293 103.702 293.039 103.814L292.291 104.113C292.045 104.201 291.796 104.276 291.542 104.338L290.862 104.54C290.653 104.605 290.441 104.657 290.226 104.697L289.096 104.899C288.795 104.956 288.49 104.991 288.183 105.004L287.518 105.056H287.106L286.994 105.026Z" fill="#8F7657"/>
<path d="M267.374 98.7912C267.374 98.7912 267.329 98.7388 267.262 98.619L266.97 98.11C266.843 97.893 266.694 97.616 266.536 97.2867C266.379 96.9573 266.192 96.5905 266.028 96.1639C265.945 95.9468 265.856 95.7298 265.758 95.4977C265.661 95.2657 265.594 95.0187 265.504 94.7492C265.317 94.2402 265.175 93.6863 265.018 93.1025C264.367 90.552 264.169 87.9069 264.434 85.288C264.502 84.6892 264.561 84.1128 264.674 83.5888C264.719 83.3194 264.756 83.0649 264.816 82.8403C264.876 82.6158 264.928 82.3613 264.988 82.1367C265.078 81.6951 265.22 81.2984 265.317 80.9541C265.414 80.6097 265.527 80.3103 265.624 80.0708C265.721 79.8313 265.781 79.6666 265.833 79.5244C265.854 79.4582 265.885 79.3952 265.923 79.3373C265.913 79.4063 265.895 79.4741 265.871 79.5394C265.818 79.6816 265.758 79.8687 265.684 80.0933C265.609 80.3178 265.504 80.6322 265.414 80.9765C265.325 81.3208 265.19 81.725 265.1 82.1667C265.05 82.3912 264.998 82.6233 264.943 82.8628C264.891 83.1098 264.861 83.3643 264.808 83.6113C264.711 84.1353 264.659 84.7041 264.584 85.3029C264.477 86.6027 264.464 87.9086 264.546 89.2102C264.656 90.5089 264.864 91.7975 265.167 93.065C265.325 93.6414 265.459 94.1953 265.639 94.7043C265.721 94.9588 265.796 95.2058 265.886 95.4528L266.14 96.119C266.297 96.5456 266.477 96.9124 266.626 97.2417C266.776 97.5711 266.911 97.8556 267.03 98.0801L267.292 98.6041C267.328 98.6624 267.356 98.7253 267.374 98.7912Z" fill="white"/>
<path d="M281.305 85.5201C281.096 85.4055 280.918 85.2409 280.788 85.041C280.437 84.5748 280.246 84.0079 280.242 83.4242C280.248 82.841 280.439 82.2747 280.788 81.8075C280.919 81.6037 281.099 81.4364 281.312 81.3209C281.312 81.3209 281.117 81.5155 280.886 81.8748C280.579 82.3332 280.415 82.8725 280.415 83.4242C280.415 83.976 280.579 84.5153 280.886 84.9737C281.117 85.3255 281.327 85.4976 281.305 85.5201Z" fill="white"/>
<path d="M284.929 78.7685C284.838 78.5455 284.8 78.3049 284.816 78.0649C284.777 77.8142 284.797 77.5577 284.876 77.3164C284.929 77.3164 284.973 77.6308 284.988 78.0275C285.028 78.2757 285.008 78.5299 284.929 78.7685Z" fill="white"/>
<path d="M286.908 69.3297C286.721 69.3492 286.533 69.3492 286.346 69.3297C286.174 69.3297 285.95 69.3297 285.703 69.3297C285.456 69.3297 285.157 69.3297 284.843 69.3297C284.529 69.3297 284.177 69.3297 283.803 69.4121C283.429 69.4944 283.055 69.5094 282.621 69.5693C281.724 69.7313 280.839 69.9539 279.972 70.2355C279.108 70.5322 278.265 70.8899 277.451 71.3058C277.085 71.5079 276.703 71.6876 276.411 71.8897C276.12 72.0918 275.798 72.2714 275.536 72.4511C275.274 72.6307 275.042 72.8029 274.84 72.9526C274.638 73.1023 274.459 73.237 274.324 73.3493C274.191 73.4785 274.043 73.5915 273.883 73.6861C274.006 73.5498 274.138 73.4222 274.279 73.3044C274.414 73.1771 274.579 73.0349 274.781 72.8777C274.983 72.7205 275.199 72.5334 275.469 72.3538C275.738 72.1741 276.015 71.9645 276.337 71.7699C276.658 71.5753 277.01 71.3732 277.377 71.1636C278.194 70.7395 279.042 70.3767 279.913 70.0783C280.788 69.7934 281.683 69.5732 282.591 69.4196C283.017 69.3597 283.414 69.2923 283.788 69.2699C284.162 69.2474 284.536 69.2175 284.835 69.21C285.135 69.2025 285.449 69.21 285.703 69.21C285.957 69.21 286.174 69.21 286.354 69.21L286.908 69.3297Z" fill="white"/>
<path d="M289.857 108.911C289.729 108.963 289.596 109.003 289.461 109.031C289.091 109.13 288.717 109.208 288.338 109.263C287.102 109.465 285.847 109.525 284.598 109.443C283.329 109.359 282.074 109.131 280.857 108.762C280.401 108.612 280.027 108.485 279.78 108.372C279.648 108.327 279.52 108.269 279.398 108.2C279.537 108.22 279.673 108.258 279.802 108.312C280.057 108.402 280.431 108.515 280.895 108.642C282.1 108.977 283.335 109.19 284.583 109.278C285.831 109.358 287.084 109.316 288.323 109.151C288.802 109.083 289.184 109.016 289.453 108.971C289.584 108.933 289.72 108.913 289.857 108.911Z" fill="white"/>
<path d="M291.233 145.367C292.43 150.788 291.995 156.442 289.981 161.615C287.967 166.787 284.466 171.246 279.919 174.428C275.372 177.61 269.985 179.371 264.438 179.49C258.891 179.608 253.433 178.078 248.755 175.093C244.077 172.108 240.389 167.803 238.156 162.721C235.924 157.639 235.248 152.008 236.213 146.542C237.179 141.075 239.743 136.018 243.581 132.009C247.42 128 252.36 125.221 257.777 124.021C265.042 122.414 272.648 123.761 278.922 127.764C285.196 131.767 289.624 138.099 291.233 145.367Z" fill="#E1C8A9"/>
<g opacity="0.1">
<path d="M257.781 124.021C250.517 125.631 244.188 130.061 240.188 136.339C236.188 142.616 234.843 150.225 236.451 157.493C236.451 157.493 255.884 154.097 258.799 145.31C261.713 136.522 257.781 124.021 257.781 124.021Z" fill="white"/>
</g>
<path d="M284.129 146.482C285.04 150.602 284.708 154.899 283.178 158.83C281.647 162.762 278.986 166.151 275.53 168.569C272.075 170.987 267.98 172.326 263.764 172.416C259.548 172.506 255.401 171.343 251.845 169.074C248.29 166.806 245.486 163.534 243.789 159.671C242.093 155.809 241.579 151.53 242.312 147.375C243.046 143.22 244.994 139.376 247.911 136.33C250.828 133.283 254.583 131.17 258.7 130.257C261.434 129.652 264.261 129.591 267.019 130.078C269.777 130.566 272.412 131.592 274.774 133.099C277.135 134.606 279.177 136.563 280.782 138.859C282.388 141.156 283.525 143.746 284.129 146.482Z" fill="#FF725E"/>
<path d="M284.129 146.482C285.04 150.602 284.708 154.899 283.178 158.83C281.647 162.762 278.986 166.151 275.53 168.569C272.075 170.987 267.98 172.326 263.764 172.416C259.548 172.506 255.401 171.343 251.845 169.074C248.29 166.806 245.486 163.534 243.789 159.671C242.093 155.809 241.579 151.53 242.312 147.375C243.046 143.22 244.994 139.376 247.911 136.33C250.828 133.283 254.583 131.17 258.7 130.257C261.434 129.652 264.261 129.591 267.019 130.078C269.777 130.566 272.412 131.592 274.774 133.099C277.135 134.606 279.177 136.563 280.782 138.859C282.388 141.156 283.525 143.746 284.129 146.482Z" fill="#8F7657"/>
<path d="M284.905 147.222C285.797 151.287 285.466 155.525 283.951 159.401C282.437 163.277 279.808 166.617 276.397 168.999C272.986 171.381 268.946 172.697 264.787 172.782C260.629 172.867 256.538 171.716 253.033 169.476C249.528 167.235 246.765 164.005 245.094 160.194C243.424 156.383 242.919 152.161 243.646 148.064C244.372 143.966 246.296 140.175 249.175 137.172C252.054 134.168 255.759 132.085 259.82 131.187C262.52 130.591 265.31 130.532 268.032 131.015C270.754 131.498 273.355 132.513 275.684 134.003C278.014 135.492 280.028 137.426 281.61 139.694C283.192 141.962 284.312 144.521 284.905 147.222Z" fill="#FCE3C3"/>
<path d="M264.79 149.803L263.633 144.549C264.617 144.45 265.61 144.488 266.583 144.661C267.095 144.792 267.593 144.97 268.072 145.194L268.105 145.019L268.501 142.944L268.592 142.467L267.433 141.685L267.03 141.995C265.714 141.627 264.335 141.539 262.982 141.737L262.344 138.839L261.307 138.308L261.443 139.043L260.198 139.273L260.847 142.226C256.878 143.514 255.459 146.256 256.043 148.911C256.841 152.522 260.157 152.783 263.202 152.849L264.352 158.058C262.428 158.326 260.468 158.036 258.704 157.223L258.118 160.15C260.286 161.083 262.688 161.334 265.002 160.869L265.481 163.055L264.474 163.297L265.641 163.768L267.778 163.288L267.127 160.373C271.128 159.052 272.568 156.324 271.984 153.669C271.191 150.086 267.836 149.87 264.79 149.803ZM262.533 149.732C260.926 149.624 259.686 149.318 259.404 148.045C259.123 146.773 259.729 145.787 261.507 145.092L262.533 149.732ZM266.505 157.566L265.487 152.963C267.148 153.06 268.424 153.36 268.714 154.678C268.959 155.798 268.347 156.86 266.505 157.566Z" fill="#FF725E"/>
<path d="M264.79 149.803L263.633 144.549C264.617 144.45 265.61 144.488 266.583 144.661C267.095 144.792 267.593 144.97 268.072 145.194L268.105 145.019L268.501 142.944L268.592 142.467L267.433 141.685L267.03 141.995C265.714 141.627 264.335 141.539 262.982 141.737L262.344 138.839L261.307 138.308L261.443 139.043L260.198 139.273L260.847 142.226C256.878 143.514 255.459 146.256 256.043 148.911C256.841 152.522 260.157 152.783 263.202 152.849L264.352 158.058C262.428 158.326 260.468 158.036 258.704 157.223L258.118 160.15C260.286 161.083 262.688 161.334 265.002 160.869L265.481 163.055L264.474 163.297L265.641 163.768L267.778 163.288L267.127 160.373C271.128 159.052 272.568 156.324 271.984 153.669C271.191 150.086 267.836 149.87 264.79 149.803ZM262.533 149.732C260.926 149.624 259.686 149.318 259.404 148.045C259.123 146.773 259.729 145.787 261.507 145.092L262.533 149.732ZM266.505 157.566L265.487 152.963C267.148 153.06 268.424 153.36 268.714 154.678C268.959 155.798 268.347 156.86 266.505 157.566Z" fill="#8F7657"/>
<path d="M266.09 159.887L266.733 162.813L264.594 163.283L263.958 160.394C261.646 160.833 259.257 160.572 257.095 159.642L257.682 156.715C259.449 157.518 261.406 157.808 263.329 157.551L262.178 152.333C259.135 152.275 255.829 152.021 255.029 148.402C254.426 145.694 255.854 142.997 259.832 141.707L259.174 138.757L261.313 138.286L261.951 141.184C263.835 140.85 265.773 140.993 267.587 141.599L267.11 144.506C265.649 144.034 264.107 143.872 262.58 144.028L263.748 149.289C266.794 149.356 270.149 149.572 270.948 153.192C271.532 155.847 270.081 158.567 266.09 159.887ZM261.489 149.209L260.463 144.569C258.713 145.259 258.102 146.377 258.351 147.524C258.601 148.672 259.882 149.102 261.489 149.209ZM267.661 154.157C267.379 152.884 266.109 152.564 264.443 152.44L265.463 157.053C267.296 156.348 267.906 155.277 267.661 154.157Z" fill="#E1C8A8"/>
<path d="M268.569 172.611L268.741 172.579L269.222 172.434L270.016 172.212C270.381 172.119 270.739 171.999 271.087 171.855L272.4 171.339C272.654 171.245 272.899 171.13 273.135 170.997L273.907 170.6C274.2 170.466 274.486 170.316 274.763 170.151L275.604 169.62C275.888 169.426 276.195 169.257 276.437 169.043L277.315 168.355C278.598 167.316 279.763 166.14 280.789 164.847L281.575 163.762C281.71 163.577 281.845 163.393 281.969 163.201L282.324 162.581C282.55 162.173 282.811 161.758 283.031 161.323C283.251 160.887 283.439 160.43 283.647 159.978L283.799 159.63C283.849 159.515 283.893 159.397 283.931 159.277L284.173 158.556L284.423 157.824C284.505 157.575 284.571 157.321 284.621 157.064C284.733 156.554 284.88 156.076 284.975 155.523L285.185 153.915C285.654 149.411 284.652 144.876 282.329 140.988C282.037 140.523 281.746 140.069 281.458 139.627C281.151 139.186 280.809 138.808 280.484 138.37C280.332 138.158 280.166 137.957 279.988 137.766C279.813 137.582 279.636 137.39 279.453 137.207L278.928 136.656L278.662 136.386L278.383 136.146L277.266 135.178C276.89 134.872 276.484 134.608 276.095 134.333L275.522 133.922L274.922 133.572L273.737 132.852C272.26 132.112 270.706 131.539 269.102 131.143L268.03 130.881C267.678 130.805 267.325 130.776 266.987 130.726L266.022 130.585C265.704 130.54 265.387 130.552 265.074 130.535L264.205 130.507C263.936 130.486 263.666 130.486 263.397 130.506L261.985 130.589C261.612 130.608 261.24 130.651 260.873 130.719L260.055 130.87L259.556 130.963L259.383 130.995L260.873 130.719C261.241 130.641 261.614 130.588 261.989 130.56L263.407 130.458C263.675 130.438 263.944 130.436 264.213 130.45L265.091 130.475C265.386 130.496 265.701 130.475 266.038 130.516L267.001 130.648C267.341 130.708 267.692 130.727 268.044 130.803L269.132 131.053C270.748 131.446 272.314 132.017 273.804 132.755L275.007 133.472C275.206 133.586 275.415 133.697 275.607 133.822L276.189 134.231C276.578 134.507 276.993 134.768 277.369 135.075L278.488 136.052L278.778 136.299L279.044 136.569C279.218 136.753 279.402 136.935 279.579 137.128L280.123 137.685C280.307 137.867 280.452 138.094 280.621 138.298C280.941 138.708 281.288 139.114 281.604 139.553C281.92 139.993 282.187 140.47 282.488 140.931C283.624 142.895 284.465 145.016 284.983 147.225C285.45 149.45 285.58 151.731 285.369 153.994C285.299 154.533 285.221 155.074 285.149 155.604C285.078 156.134 284.911 156.653 284.79 157.164C284.738 157.424 284.673 157.681 284.594 157.933L284.344 158.665L284.094 159.397L283.963 159.76L283.801 160.1L283.188 161.463C282.968 161.898 282.707 162.313 282.482 162.721L282.127 163.341L281.725 163.913L280.921 165.001C279.884 166.302 278.703 167.482 277.401 168.517L276.523 169.206C276.234 169.419 275.918 169.59 275.634 169.783L274.793 170.315C274.516 170.477 274.229 170.624 273.936 170.755L273.155 171.153C272.916 171.278 272.67 171.39 272.418 171.486L271.092 171.985C270.739 172.122 270.377 172.233 270.008 172.317L269.211 172.53L268.712 172.622L268.569 172.611Z" fill="#8F7657"/>
<path d="M243.34 169.446C243.34 169.446 243.274 169.393 243.165 169.262L242.697 168.71C242.494 168.475 242.25 168.172 241.986 167.808C241.721 167.443 241.412 167.04 241.117 166.559C240.968 166.314 240.81 166.071 240.64 165.811C240.47 165.551 240.333 165.266 240.164 164.96C239.823 164.384 239.526 163.743 239.205 163.07C237.843 160.12 237.011 156.953 236.745 153.715C236.693 152.973 236.636 152.26 236.655 151.599C236.649 151.262 236.638 150.945 236.66 150.659C236.682 150.373 236.689 150.052 236.711 149.766C236.721 149.21 236.805 148.696 236.846 148.256C236.886 147.817 236.956 147.428 237.02 147.116C237.084 146.803 237.12 146.59 237.152 146.405C237.163 146.32 237.185 146.237 237.219 146.158C237.222 146.244 237.216 146.33 237.201 146.415C237.169 146.599 237.138 146.84 237.098 147.129C237.057 147.419 237 147.824 236.969 148.262C236.937 148.7 236.864 149.221 236.854 149.777C236.844 150.061 236.832 150.354 236.819 150.657C236.811 150.969 236.832 151.284 236.824 151.596C236.823 152.254 236.887 152.956 236.93 153.7C237.092 155.301 237.369 156.889 237.76 158.451C238.185 160.003 238.725 161.52 239.378 162.991C239.698 163.655 239.985 164.297 240.317 164.875C240.474 165.165 240.62 165.448 240.785 165.728L241.243 166.48C241.529 166.962 241.829 167.367 242.085 167.733C242.34 168.1 242.567 168.415 242.763 168.66L243.198 169.238C243.255 169.3 243.302 169.371 243.34 169.446Z" fill="white"/>
<path d="M257.285 150.211C257.006 150.119 256.754 149.959 256.551 149.745C256.021 149.258 255.661 148.613 255.526 147.905C255.402 147.196 255.508 146.466 255.827 145.82C255.94 145.543 256.121 145.3 256.353 145.112C256.353 145.112 256.161 145.392 255.96 145.88C255.69 146.505 255.612 147.197 255.736 147.866C255.859 148.536 256.179 149.154 256.654 149.642C257.015 150.017 257.307 150.179 257.285 150.211Z" fill="white"/>
<path d="M260.181 141.202C260.021 140.951 259.921 140.668 259.887 140.373C259.783 140.077 259.75 139.761 259.792 139.451C259.855 139.439 259.98 139.811 260.087 140.289C260.191 140.581 260.223 140.894 260.181 141.202Z" fill="white"/>
<path d="M260.462 129.301C260.24 129.367 260.012 129.409 259.781 129.427C259.572 129.466 259.3 129.516 259 129.572C258.701 129.627 258.337 129.694 257.956 129.765C257.575 129.835 257.148 129.914 256.712 130.098C256.277 130.282 255.826 130.384 255.313 130.554C254.26 130.952 253.236 131.42 252.247 131.956C251.264 132.511 250.322 133.134 249.427 133.821C249.027 134.149 248.604 134.452 248.296 134.763C247.987 135.074 247.636 135.364 247.359 135.641C247.081 135.918 246.838 136.179 246.627 136.406C246.415 136.633 246.227 136.837 246.089 137.003C245.956 137.19 245.802 137.36 245.629 137.511C245.748 137.318 245.88 137.133 246.025 136.959C246.159 136.774 246.327 136.564 246.537 136.328C246.747 136.092 246.969 135.816 247.255 135.538C247.542 135.26 247.831 134.943 248.178 134.635C248.525 134.326 248.906 134.002 249.304 133.665C250.201 132.967 251.149 132.337 252.14 131.779C253.138 131.237 254.176 130.769 255.243 130.379C255.747 130.21 256.213 130.04 256.662 129.929C257.111 129.817 257.559 129.697 257.92 129.621C258.282 129.545 258.665 129.483 258.974 129.426C259.282 129.369 259.546 129.32 259.764 129.28L260.462 129.301Z" fill="white"/>
<path d="M272.917 176.685C272.773 176.777 272.62 176.855 272.462 176.92C272.037 177.123 271.599 177.301 271.152 177.453C269.697 177.976 268.188 178.33 266.652 178.51C265.093 178.693 263.519 178.698 261.959 178.523C261.372 178.443 260.889 178.373 260.564 178.292C260.394 178.266 260.226 178.225 260.062 178.168C260.236 178.162 260.409 178.177 260.578 178.214C260.907 178.266 261.386 178.318 261.978 178.369C263.515 178.505 265.063 178.487 266.597 178.314C268.13 178.131 269.641 177.798 271.109 177.32C271.675 177.131 272.123 176.964 272.44 176.849C272.591 176.773 272.751 176.718 272.917 176.685Z" fill="white"/>
<path d="M196.704 82.8516C191.781 82.0842 188.58 76.3923 189.555 70.1385C190.53 63.8847 195.311 59.4371 200.234 60.2046C205.157 60.972 208.358 66.6638 207.383 72.9176C206.408 79.1715 201.627 83.619 196.704 82.8516Z" fill="#603813"/>
<path d="M261.035 204.168C262.59 204.35 264.124 204.679 265.617 205.151C266.395 205.408 267.156 205.658 267.935 205.853C267.466 206.296 267.182 206.627 267.199 206.786C267.282 207.315 267.475 207.82 267.765 208.27C267.79 208.321 267.82 208.368 267.848 208.419C269.735 211.76 271.179 215.276 272.553 218.847C273.477 221.262 274.446 223.766 274.711 226.352C274.993 229.109 274.83 231.844 274.711 234.592C274.721 235.026 274.649 235.457 274.499 235.864C274.183 236.572 273.191 236.956 272.572 236.392C271.219 235.171 271.331 232.898 271.346 231.227C271.363 229.671 271.465 228.102 271.221 226.562C270.977 225.023 270.309 223.772 269.425 222.534C268.789 221.639 268.191 220.723 267.532 219.841C267.283 219.495 267.01 219.167 266.715 218.859C266.332 218.441 265.838 218.14 265.291 217.99C264.826 217.882 264.097 217.892 263.702 218.215C263.308 218.537 263.431 219.186 263.49 219.657C263.573 220.212 263.724 220.756 263.94 221.274C264.279 222.169 264.718 223.079 264.788 224.043C264.803 224.207 264.807 224.371 264.799 224.535C264.703 226.304 262.755 228.267 261.421 226.217C261.155 225.764 260.941 225.283 260.785 224.781C259.937 222.428 258.576 220.25 258.154 217.767C257.914 216.183 257.763 214.587 257.7 212.986C257.382 207.488 257.863 206.182 258.567 203.924C259.396 203.979 260.217 204.064 261.035 204.168Z" fill="#FFCFCA"/>
<path d="M266.727 218.838C266.543 218.51 266.343 218.191 266.127 217.884C265.738 217.337 265.278 216.824 264.664 216.548C264.049 216.272 263.268 216.308 262.789 216.773C262.386 217.163 262.272 217.772 262.301 218.333C262.38 219.707 263.184 220.916 263.885 222.101C264.264 222.704 264.571 223.349 264.801 224.022C264.727 223.057 264.288 222.148 263.953 221.253C263.737 220.734 263.586 220.191 263.504 219.635C263.446 219.165 263.292 218.543 263.716 218.193C264.14 217.844 264.839 217.861 265.304 217.969C265.85 218.119 266.343 218.42 266.727 218.838Z" fill="#F9BFBB"/>
<path d="M195.816 179.462C195.816 179.462 199.054 205.885 201.645 222.879C202.252 226.84 202.826 230.288 203.314 232.771C204.955 241.122 206.857 253.372 208.801 267.215C215.107 312.083 221.894 373.705 221.894 373.705H243.273C243.273 373.705 245.985 257.453 240.699 217.651C239.58 209.233 237.018 179.458 237.018 179.458L195.816 179.462Z" fill="#1E1D59"/>
<path d="M175.345 179.373C175.345 179.373 172.784 209.148 171.664 217.564C166.378 257.362 174.781 373.462 174.781 373.462L195.897 374.437C195.897 374.437 203.189 267.698 210.152 232.283C212.735 219.137 216.547 179.373 216.547 179.373H175.345Z" fill="#1E1D59"/>
<path d="M253.298 203.069C253.558 204.558 253.902 206.03 254.329 207.48C254.398 207.711 254.473 207.944 254.541 208.173C254.771 208.882 255.055 209.572 255.389 210.238C255.502 210.457 255.628 210.67 255.766 210.874C256 211.279 256.345 211.609 256.76 211.824C258.425 212.532 267.691 208.143 268.174 207.062C268.357 206.56 268.43 206.025 268.386 205.493C268.376 205.234 268.354 204.961 268.32 204.674C268.221 203.925 268.08 203.182 267.896 202.448C267.839 202.196 267.776 201.943 267.71 201.695C267.142 199.537 266.423 197.624 266.423 197.624L253.298 203.069Z" fill="#363740"/>
<path d="M254.321 207.477C254.391 207.708 254.465 207.942 254.533 208.171C254.983 208.031 255.434 207.884 255.884 207.734C258.464 206.899 260.993 205.916 263.46 204.789C264.69 204.218 265.898 203.601 267.064 202.927C267.332 202.772 267.611 202.618 267.883 202.45C267.826 202.198 267.762 201.945 267.696 201.697C267.149 202.043 266.581 202.363 266.013 202.675C262.321 204.719 258.35 206.201 254.321 207.477Z" fill="white"/>
<path d="M255.387 210.236C255.501 210.455 255.627 210.668 255.765 210.872C256.077 210.775 256.386 210.675 256.696 210.573C260.724 209.263 264.789 207.755 268.383 205.484C268.372 205.226 268.351 204.952 268.317 204.666C268.008 204.868 267.694 205.062 267.378 205.249C264.992 206.634 262.481 207.792 259.878 208.707C258.392 209.258 256.893 209.759 255.387 210.236Z" fill="white"/>
<path d="M214.047 98.6653L196.003 99.3968L201.16 110.075L212.34 109.629L214.047 98.6653Z" fill="black"/>
<path d="M119.619 141.508C119.982 141.546 120.503 141.479 120.817 141.659C121.254 141.909 121.665 142.507 122.026 142.876C123.029 143.889 124.059 144.875 125.056 145.897C125.331 146.179 125.601 146.465 125.87 146.745C128.168 144.15 130.436 141.521 132.672 138.858C130.225 136.998 128.355 135.599 127.513 135.009C127.108 134.723 126.699 134.439 126.292 134.161C126.206 133.031 126.011 131.912 125.711 130.82C125.336 129.478 124.625 128.379 124.125 127.094C123.26 124.876 122.836 122.464 122.13 120.184C121.918 119.476 121.659 118.745 121.146 118.206L121.091 118.149C120.571 117.65 119.751 117.398 119.125 117.752C118.642 118.028 118.387 118.588 118.32 119.137C118.203 120.108 118.415 121.162 118.606 122.105C118.731 122.712 118.917 123.358 118.917 123.982C118.917 124.932 118.317 124.332 117.874 123.876C117.396 123.37 116.96 122.826 116.57 122.249C115.788 121.119 115.135 119.904 114.399 118.742C114.399 118.742 109.421 110.876 109.41 110.865C108.922 110.092 107.62 110.111 107.103 110.844C106.384 111.866 107.546 113.121 108.004 113.995C108.77 115.455 109.529 116.919 110.281 118.386C110.82 119.446 111.359 120.494 111.889 121.55C112.198 122.162 112.754 122.684 113.08 123.312C113.201 123.543 113.583 124.16 113.313 124.423C113.044 124.686 112.61 124.16 112.408 123.999C111.92 123.592 111.448 123.165 110.981 122.726C110.082 121.878 109.217 121.005 108.36 120.121C106.609 118.325 104.877 116.495 102.918 114.92C102.84 114.855 102.757 114.799 102.67 114.75C102.525 114.624 102.356 114.529 102.173 114.47C101.991 114.412 101.798 114.391 101.607 114.409C101.416 114.427 101.231 114.484 101.063 114.575C100.894 114.667 100.746 114.792 100.628 114.943C99.752 116.134 101.412 117.462 102.112 118.276C103.24 119.582 104.417 120.848 105.547 122.154C106.395 123.127 107.243 124.101 108.091 125.078C108.388 125.417 110.105 126.679 109.681 127.26C109.312 127.771 108.076 126.566 107.756 126.382C106.993 125.941 106.234 125.489 105.477 125.036C103.961 124.124 102.47 123.18 101.003 122.192C100.873 122.104 100.73 122.037 100.579 121.995C100.173 121.702 99.7689 121.406 99.3661 121.104C99.1905 120.984 98.989 120.907 98.778 120.878C98.5669 120.85 98.3522 120.872 98.1512 120.943C97.9503 121.013 97.7687 121.13 97.6214 121.284C97.474 121.437 97.3649 121.624 97.303 121.827C96.9341 123.07 98.4352 123.759 99.2388 124.346C100.52 125.282 101.811 126.201 103.113 127.103C104.031 127.743 104.954 128.379 105.882 129.011C106.376 129.346 108.653 130.635 107.616 131.384C107.404 131.53 106.914 131.35 106.709 131.297C106.049 131.134 105.437 130.822 104.8 130.574C103.113 129.912 101.416 129.276 99.7117 128.665C99.4904 128.594 99.2545 128.579 99.0259 128.622C98.7973 128.665 98.5833 128.766 98.4036 128.913C98.224 129.061 98.0846 129.252 97.9982 129.468C97.9118 129.684 97.8813 129.919 97.9094 130.15C98.1214 131.598 100.679 131.937 101.783 132.319C103.54 132.928 105.274 133.602 106.984 134.339C107.284 134.456 107.568 134.607 107.832 134.789C108.144 135.056 108.423 135.359 108.664 135.692C111.024 138.601 114.649 140.569 118.292 141.307C118.72 141.387 119.168 141.459 119.619 141.508Z" fill="#FFCFCA"/>
<path d="M239.304 207.641C233.613 211.934 171.376 211.383 171.418 208.33C171.52 200.885 172.669 192.852 173.736 184.973C174.34 180.52 174.919 176.129 175.267 171.928C176.089 162.035 178.871 130.862 179.257 125.349C179.509 121.745 180.139 113.599 180.215 112.628C180.671 112.305 181.136 111.997 181.613 111.703L181.655 111.678C182.005 111.466 182.406 111.237 182.838 110.989C182.838 110.989 182.838 110.989 182.849 110.989C184.702 109.907 187.138 108.533 188.748 107.77C192.705 105.907 196.924 104.656 201.257 104.061C208.5 103.018 215.676 104.274 220.957 105.758C223.788 106.526 226.553 107.519 229.226 108.726L229.256 108.739C229.256 108.739 226.239 110.032 225.44 115C221.998 136.123 232.388 152.945 232.388 152.945C232.388 152.945 235.015 171.339 236.535 180.721C237.496 186.677 240.099 207.041 239.304 207.641Z" fill="#ACDDD9"/>
<path d="M214.359 88.6891C214.162 89.7832 213.969 90.8794 213.772 91.9713C213.759 92.0371 213.749 92.1049 213.738 92.1685C213.738 92.2003 213.728 92.2279 213.721 92.2597C213.462 93.7079 213.204 95.156 213.028 96.6127C212.954 97.1958 212.894 97.7852 212.854 98.3747C212.805 99.032 212.78 99.6956 212.773 100.355C212.754 101.627 212.788 102.887 212.829 104.148C212.85 104.863 212.86 105.575 212.865 106.29C212.865 107.115 213.223 108.007 212.886 108.809C212.462 109.822 211.486 110.348 210.63 110.944C209.695 111.597 208.682 112.13 207.615 112.532C205.526 113.314 203.162 113.605 201.01 112.941C196.88 111.669 197.974 107.132 197.988 103.843V102.933V100.525L198.001 97.0982C199.182 96.8078 200.289 96.2713 201.383 95.7391C205.017 93.9602 208.63 92.1346 212.169 90.1775L212.445 90.0249C213.143 89.673 213.788 89.2232 214.359 88.6891Z" fill="#FFCFCA"/>
<path d="M197.991 103.839C202.087 102.798 205.999 101.136 209.591 98.9091C210.727 98.1988 211.908 97.4376 213.03 96.6192C213.206 95.1625 213.465 93.7164 213.723 92.2662C213.935 91.076 214.147 89.8858 214.359 88.6956C213.675 89.3613 213.019 89.7091 212.18 90.1798C208.641 92.1389 205.03 93.9645 201.394 95.7413C200.3 96.2757 199.193 96.8015 198.001 97.1005L197.991 103.839Z" fill="#F9BFBB"/>
<path d="M212.186 89.5838C213.128 90.2287 214.222 90.618 215.359 90.7135C216.497 90.809 217.64 90.6075 218.676 90.1287C219.708 89.6346 220.587 88.8713 221.222 87.9194C221.856 86.9675 222.222 85.8622 222.281 84.7198C222.317 84.1051 222.233 83.4893 222.033 82.907C221.509 81.4842 220.061 80.4792 218.551 80.3795C217.791 80.3478 217.034 80.5028 216.346 80.831C215.659 81.1592 215.063 81.6507 214.61 82.2624L213.681 85.0781L212.186 89.5838Z" fill="#FFCFCA"/>
<path d="M211.741 215.498C211.833 217.162 212.035 218.818 212.345 220.456C212.395 220.697 212.448 220.933 212.504 221.162C212.632 221.721 212.811 222.268 213.039 222.794C213.141 223.027 213.268 223.248 213.418 223.454C213.501 223.567 213.598 223.67 213.707 223.759C214.527 224.41 224.944 222.19 230.379 220.11C235.308 218.225 243.062 215.306 243.374 213.885C243.439 213.536 243.46 213.179 243.435 212.825C243.435 212.575 243.401 212.301 243.365 212.019C243.308 211.521 243.215 210.984 243.105 210.437C243.056 210.189 243.003 209.935 242.946 209.685C242.428 207.378 241.686 205.122 241.686 205.122L211.741 215.498Z" fill="#363740"/>
<path d="M213.033 222.788C213.135 223.021 213.263 223.242 213.412 223.447C214.981 223.093 216.543 222.712 218.098 222.307C223.612 220.855 229.044 219.111 234.372 217.08C237.016 216.075 239.643 215.053 242.081 213.601C242.526 213.334 242.978 213.073 243.43 212.814C243.43 212.564 243.396 212.29 243.36 212.008C242.459 212.528 241.574 213.069 240.661 213.58C238.243 214.928 235.572 215.859 232.983 216.822C230.394 217.784 227.725 218.7 225.061 219.54C221.099 220.793 217.085 221.885 213.033 222.788Z" fill="white"/>
<path d="M212.342 220.456C212.392 220.698 212.445 220.933 212.501 221.162C214.294 220.77 216.079 220.341 217.857 219.875C223.371 218.423 228.803 216.679 234.131 214.648C236.775 213.643 239.402 212.621 241.84 211.169C242.264 210.919 242.685 210.673 243.102 210.431C243.053 210.183 243 209.929 242.943 209.678C242.094 210.168 241.272 210.673 240.419 211.148C238.002 212.496 235.331 213.427 232.742 214.39C230.153 215.352 227.483 216.268 224.82 217.108C220.711 218.399 216.549 219.525 212.342 220.456Z" fill="white"/>
<path d="M211.621 218.386C213.574 221.304 233.708 212.611 240.393 209.854C245.459 207.759 243.621 204.751 243.076 200.832C241.477 189.287 239.539 179.343 237.631 168.72C236.906 164.666 236.18 160.51 235.481 156.132C235.451 155.952 235.426 155.774 235.396 155.593C236.244 158.409 237.8 164.198 238.443 166.212C242.1 177.672 247.952 204.738 254.048 205.713C255.108 205.881 266.696 201.801 267.215 200.349C270.873 190.101 259.54 152.561 257.706 147.918C254.536 139.871 244.522 119.158 241.856 115.732C236.736 109.148 220.125 105.283 219.303 105.052C216.908 104.373 214.495 103.762 212.062 103.22C209.655 108.93 209.062 114.548 208.447 120.712C205.173 153.607 210.088 216.084 211.621 218.386Z" fill="#C15252"/>
<path d="M206.254 110.369L206.432 111.298L206.61 112.244L206.907 113.802L207.083 114.733L207.572 117.303L207.744 118.204L208.367 121.486L218.445 104.761L217.746 103.788L217.264 103.12L216.42 101.95L215.943 101.286L215.225 100.289L214.754 99.6343L214.056 98.6653L206.254 110.369Z" fill="#363740"/>
<path d="M206.428 111.298L206.606 112.244C208.188 110.235 209.734 108.202 211.245 106.146C212.638 104.25 214.112 102.372 215.219 100.287L214.748 99.6322C214.179 100.713 213.531 101.752 212.81 102.738C210.748 105.642 208.62 108.495 206.428 111.298Z" fill="white"/>
<path d="M206.9 113.804L207.076 114.735C208.872 112.615 210.638 110.463 212.316 108.249C213.854 106.267 215.225 104.161 216.414 101.952L215.937 101.288C215.394 102.348 214.792 103.383 214.147 104.386C212.381 107.132 210.314 109.67 208.242 112.186C207.801 112.726 207.354 113.266 206.9 113.804Z" fill="white"/>
<path d="M207.579 117.303L207.749 118.202C209.839 115.925 211.765 113.502 213.509 110.95C214.536 109.449 215.497 107.905 216.393 106.318C216.847 105.517 217.281 104.709 217.697 103.892L217.75 103.788L217.271 103.12C217.146 103.36 217.025 103.604 216.9 103.845C216.429 104.756 215.939 105.652 215.428 106.536C213.618 109.66 211.546 112.625 209.235 115.399C208.693 116.046 208.141 116.681 207.579 117.303Z" fill="white"/>
<path d="M233.793 161.087C234.85 163.733 236.127 166.287 237.609 168.72C236.884 164.666 236.159 160.51 235.459 156.132C235.014 155.125 230.676 145.123 229.4 134.757C228.916 147.43 231.598 155.721 233.793 161.087Z" fill="#AF4646"/>
<path d="M126.334 148.005C125.043 147.362 123.789 146.647 122.579 145.863C122.386 145.736 122.193 145.605 122.004 145.473C121.417 145.071 120.862 144.625 120.342 144.14C120.17 143.977 120.009 143.804 119.858 143.622C119.552 143.297 119.344 142.892 119.258 142.454C119.065 140.736 125.598 133.449 126.72 133.301C127.226 133.272 127.732 133.352 128.204 133.536C128.439 133.614 128.683 133.71 128.933 133.818C129.596 134.107 130.243 134.433 130.869 134.795C131.081 134.918 131.293 135.043 131.505 135.173C133.324 136.277 134.883 137.456 134.883 137.456L126.334 148.005Z" fill="#363740"/>
<path d="M122.581 145.863C122.388 145.736 122.195 145.605 122.007 145.473C122.257 145.098 122.513 144.725 122.772 144.356C124.237 142.221 125.825 140.173 127.526 138.222C128.374 137.251 129.275 136.313 130.212 135.421C130.424 135.209 130.636 134.997 130.872 134.8C131.084 134.923 131.296 135.048 131.508 135.177C131.041 135.582 130.596 136.025 130.155 136.449C127.28 139.29 124.844 142.522 122.581 145.863Z" fill="white"/>
<path d="M120.345 144.14C120.174 143.977 120.012 143.804 119.862 143.622L120.388 142.852C122.686 139.515 125.167 136.212 128.216 133.538C128.451 133.616 128.695 133.712 128.945 133.82C128.678 134.049 128.416 134.283 128.159 134.522C126.242 136.328 124.5 138.312 122.955 140.446C122.056 141.657 121.191 142.893 120.345 144.14Z" fill="white"/>
<path d="M198.617 215.498C198.525 217.162 198.323 218.818 198.013 220.456C197.964 220.697 197.913 220.933 197.854 221.162C197.726 221.721 197.547 222.268 197.32 222.794C197.217 223.027 197.09 223.248 196.94 223.454C196.857 223.567 196.76 223.67 196.652 223.759C195.833 224.41 185.414 222.19 179.982 220.11C175.052 218.225 167.298 215.306 166.986 213.885C166.921 213.536 166.9 213.179 166.925 212.825C166.925 212.575 166.959 212.301 166.993 212.019C167.052 211.521 167.143 210.984 167.254 210.437C167.302 210.189 167.355 209.935 167.415 209.685C167.932 207.378 168.672 205.122 168.672 205.122L198.617 215.498Z" fill="#363740"/>
<path d="M197.32 222.788C197.218 223.021 197.091 223.242 196.941 223.447C195.375 223.093 193.813 222.712 192.257 222.307C186.746 220.857 181.317 219.115 175.992 217.087C173.346 216.082 170.721 215.06 168.283 213.607C167.835 213.34 167.384 213.079 166.934 212.82C166.934 212.57 166.968 212.297 167.002 212.015C167.903 212.534 168.789 213.075 169.701 213.586C172.12 214.934 174.79 215.865 177.379 216.828C179.968 217.791 182.639 218.706 185.302 219.546C189.255 220.793 193.268 221.885 197.32 222.788Z" fill="white"/>
<path d="M198.016 220.456C197.967 220.698 197.916 220.933 197.857 221.162C196.066 220.77 194.281 220.341 192.503 219.875C186.989 218.423 181.557 216.679 176.229 214.648C173.583 213.643 170.958 212.621 168.52 211.169C168.096 210.919 167.672 210.673 167.248 210.431C167.297 210.183 167.35 209.929 167.409 209.678C168.257 210.168 169.08 210.673 169.93 211.148C172.349 212.496 175.019 213.427 177.608 214.39C180.197 215.352 182.868 216.268 185.531 217.108C189.647 218.399 193.805 219.525 198.016 220.456Z" fill="white"/>
<path d="M123.597 147.43C128.05 153.66 160.853 189.126 170.901 168.4C171.048 168.097 171.228 167.639 171.433 167.069C172.517 164.058 174.258 157.951 174.977 155.587C174.947 155.767 174.919 155.945 174.89 156.126C174.834 156.482 174.775 156.836 174.72 157.186C174.073 161.178 173.407 164.987 172.74 168.712C170.831 179.341 168.893 189.279 167.295 200.828C166.752 204.747 164.914 207.755 169.977 209.85C176.662 212.607 196.799 221.3 198.749 218.384C199.723 216.926 198.93 190.958 199.674 164.009C200.098 148.433 203.124 132.758 201.924 120.71C201.309 114.546 200.717 108.928 198.319 103.218C195.886 103.758 193.472 104.368 191.076 105.05C190.255 105.281 173.643 109.146 168.522 115.73C165.857 119.156 154.329 147.672 154.329 147.672C154.329 147.672 144.453 140.308 132.619 135.239C130.912 134.507 122.378 145.723 123.597 147.43Z" fill="#C15252"/>
<path d="M204.109 110.369L203.931 111.298L203.753 112.244L203.456 113.802L203.28 114.733L202.791 117.303L202.621 118.204L201.995 121.486L191.918 104.761L192.617 103.788L193.099 103.12L193.942 101.95L194.42 101.286L195.138 100.289L195.609 99.6343L196.307 98.6653L204.109 110.369Z" fill="#363740"/>
<path d="M203.938 111.298L203.759 112.244C202.178 110.235 200.631 108.202 199.118 106.146C197.727 104.25 196.251 102.372 195.145 100.287L195.615 99.6322C196.185 100.713 196.833 101.751 197.553 102.738C199.616 105.642 201.744 108.495 203.938 111.298Z" fill="white"/>
<path d="M203.461 113.804L203.285 114.735C201.487 112.615 199.723 110.463 198.046 108.249C196.507 106.267 195.135 104.161 193.945 101.952L194.424 101.295C194.968 102.357 195.565 103.391 196.214 104.392C197.978 107.138 200.047 109.676 202.117 112.193C202.559 112.729 203.007 113.266 203.461 113.804Z" fill="white"/>
<path d="M202.789 117.303L202.617 118.202C200.527 115.925 198.603 113.502 196.859 110.95C195.832 109.449 194.87 107.905 193.973 106.318C193.522 105.517 193.087 104.709 192.669 103.892L192.616 103.788L193.095 103.12C193.22 103.36 193.343 103.604 193.466 103.845C193.937 104.756 194.428 105.652 194.94 106.536C196.749 109.661 198.821 112.626 201.133 115.399C201.672 116.046 202.224 116.681 202.789 117.303Z" fill="white"/>
<path d="M190.966 92.8917C191.867 95.0926 193.118 97.0942 195.164 98.3833C197.006 99.5249 199.149 100.085 201.313 99.9905C203.681 99.8866 205.959 99.0618 207.975 97.7917C208.974 97.1563 209.906 96.421 210.757 95.5972C212.23 94.1529 213.513 92.5262 214.574 90.7565C216.325 87.9005 217.737 84.6479 218.435 81.2894C219.232 77.4898 219.122 73.5545 217.574 69.9097C216.948 68.4205 216.077 67.0466 214.998 65.845C210.447 60.7775 202.621 59.9082 197.06 63.8392C194.161 65.8938 192.001 68.9767 190.845 72.3205C190.476 73.3854 190.163 74.4689 189.908 75.5666C188.57 81.2724 188.748 87.4701 190.966 92.8917Z" fill="#FFCFCA"/>
<path d="M202.489 82.71C202.788 82.7248 203.2 82.252 203.312 81.5459C203.376 81.2043 203.343 80.8514 203.214 80.5282C203.17 80.4328 203.051 80.208 202.869 80.1783H202.841C202.542 80.1635 202.131 80.6384 202.019 81.3424C201.956 81.685 201.991 82.0382 202.118 82.3622C202.161 82.4577 202.279 82.6824 202.462 82.7121L202.489 82.71Z" fill="#1F3C49"/>
<path d="M193.548 81.8428C193.8 81.8555 194.222 81.4357 194.337 80.719C194.399 80.388 194.366 80.0462 194.241 79.7331C194.154 79.5401 194.029 79.4172 193.915 79.3981H193.889C193.637 79.3832 193.215 79.8052 193.101 80.5219C193.039 80.8529 193.072 81.1947 193.196 81.5078C193.281 81.7007 193.408 81.8237 193.523 81.8428H193.548Z" fill="#1F3C49"/>
<path d="M198.047 83.4668C197.917 83.338 197.758 83.2432 197.583 83.1911C197.408 83.1389 197.223 83.1309 197.044 83.1679C196.852 83.2066 196.671 83.2879 196.514 83.4056C196.357 83.5234 196.229 83.6747 196.138 83.8485C196.048 84.0223 195.997 84.2142 195.99 84.4101C195.983 84.606 196.02 84.801 196.098 84.9807C196.17 85.1487 196.282 85.2962 196.425 85.4099C196.568 85.5235 196.737 85.5998 196.917 85.6317C196.699 85.4204 196.551 85.1473 196.493 84.8493C196.446 84.5914 196.486 84.3253 196.607 84.0927C196.728 83.8601 196.923 83.6743 197.161 83.5644C197.439 83.4435 197.748 83.4095 198.047 83.4668Z" fill="#1F3C49"/>
<path d="M202.209 76.2748C202.65 76.0611 203.13 75.9397 203.62 75.9178C204.109 75.8959 204.598 75.9741 205.057 76.1476C205.187 76.1981 205.299 76.2868 205.379 76.4023C205.458 76.5177 205.5 76.6544 205.5 76.7943C205.5 76.9342 205.458 77.0709 205.379 77.1863C205.299 77.3017 205.187 77.3905 205.057 77.441C204.894 77.506 204.713 77.506 204.55 77.441C204.264 77.3342 203.96 77.2873 203.655 77.3032C203.365 77.3167 203.08 77.3888 202.818 77.5152C202.733 77.5552 202.642 77.579 202.548 77.5852C202.388 77.5943 202.23 77.5477 202.1 77.4533C201.97 77.3589 201.877 77.2224 201.836 77.0671C201.795 76.9118 201.81 76.7472 201.876 76.6013C201.943 76.4553 202.059 76.337 202.203 76.2663L202.209 76.2748Z" fill="#1F3C49"/>
<path d="M193.673 74.8287C193.837 74.7941 194.002 74.7721 194.169 74.763C194.904 74.7222 195.633 74.9233 196.243 75.3355C196.353 75.4104 196.439 75.5155 196.491 75.638C196.544 75.7606 196.559 75.8956 196.537 76.0269C196.515 76.1582 196.455 76.2804 196.365 76.3788C196.276 76.4772 196.16 76.5478 196.031 76.5822C195.985 76.5945 195.938 76.6016 195.891 76.6034C195.74 76.6107 195.591 76.5682 195.467 76.4825C195.11 76.2453 194.686 76.1286 194.258 76.1497C194.163 76.1557 194.068 76.1685 193.974 76.1878C193.939 76.1959 193.902 76.2008 193.866 76.2027C193.701 76.2122 193.537 76.1621 193.406 76.0613C193.274 75.9605 193.183 75.8158 193.149 75.6535C193.112 75.4749 193.146 75.2887 193.243 75.1346C193.341 74.9805 193.495 74.8707 193.673 74.8287Z" fill="#1F3C49"/>
<path d="M202.668 80.6384C202.756 80.6237 202.846 80.6437 202.92 80.6942C202.994 80.7447 203.045 80.8218 203.063 80.9093C203.081 80.9968 203.065 81.0878 203.017 81.1635C202.97 81.2391 202.894 81.2933 202.808 81.3148C202.72 81.3295 202.629 81.3095 202.556 81.259C202.482 81.2085 202.431 81.1314 202.412 81.0439C202.394 80.9564 202.411 80.8653 202.458 80.7897C202.506 80.7141 202.581 80.6599 202.668 80.6384Z" fill="white"/>
<path d="M193.574 79.7626C193.662 79.7479 193.753 79.7679 193.826 79.8184C193.9 79.8689 193.951 79.946 193.969 80.0335C193.987 80.121 193.971 80.2121 193.923 80.2877C193.876 80.3633 193.801 80.4176 193.714 80.439C193.626 80.4537 193.535 80.4337 193.462 80.3832C193.388 80.3327 193.337 80.2556 193.319 80.1682C193.301 80.0807 193.317 79.9895 193.365 79.9139C193.412 79.8383 193.487 79.7841 193.574 79.7626Z" fill="white"/>
<path d="M192.607 86.8997C192.481 88.0421 192.673 89.197 193.163 90.237C193.915 91.8082 195.319 92.9256 197.019 93.0995C198.76 93.2754 200.395 92.4167 201.442 90.9685C202.09 90.0703 202.488 89.0158 202.594 87.9132C202.594 87.8708 202.594 87.8284 202.594 87.7839L192.609 86.7725C192.62 86.817 192.611 86.8594 192.607 86.8997Z" fill="#D55454"/>
<path d="M193.031 86.8147C193.566 87.4865 194.23 88.0445 194.984 88.456C195.738 88.8674 196.567 89.1239 197.421 89.2104C198.276 89.297 199.139 89.2118 199.96 88.9598C200.782 88.7079 201.544 88.2943 202.203 87.7434L193.031 86.8147Z" fill="white"/>
<path d="M193.166 90.237C193.918 91.8082 195.322 92.9256 197.022 93.0994C198.763 93.2754 200.398 92.4167 201.445 90.9685C198.782 90.0911 195.952 89.8408 193.176 90.237H193.166Z" fill="#F37C7C"/>
<path d="M203.044 85.4578C202.982 86.5921 204.184 87.5781 205.728 87.6629C207.271 87.7477 208.569 86.889 208.631 85.7546C208.692 84.6202 207.488 83.6343 205.946 83.5474C204.405 83.4604 203.103 84.3319 203.044 85.4578Z" fill="#F9BFBB"/>
<path d="M190.044 83.6088C190.003 84.3764 190.816 85.0421 191.857 85.093C192.898 85.1439 193.765 84.5714 193.818 83.8039C193.871 83.0363 193.046 82.3684 192.005 82.3197C190.964 82.2709 190.084 82.8476 190.044 83.6088Z" fill="#F9BFBB"/>
<path d="M171.437 167.068C172.52 164.058 174.261 157.951 174.98 155.587C174.95 155.767 174.923 155.945 174.893 156.126C174.838 156.482 174.778 156.836 174.723 157.186L175.05 155.475L176.82 128.992C176.82 128.992 171.244 153.984 171.165 162.476C171.159 163.341 171.286 165.209 171.437 167.068Z" fill="#AF4646"/>
<path d="M219.356 66.9284C219.812 65.1601 219.235 63.1988 218.084 61.8545C216.932 60.5102 215.298 59.7342 213.621 59.4607C211.943 59.1872 210.228 59.3674 208.555 59.7066C206.946 60.031 205.334 60.4996 203.704 60.4021C202.685 60.328 201.691 60.0451 200.786 59.5709C199.881 59.0967 199.083 58.4414 198.441 57.6457C197.19 56.1106 194.502 56.3353 192.875 57.4082C191.249 58.4811 189.646 60.3639 189.311 62.3867C188.991 64.3268 189.173 67.5581 192.208 69.335C195.784 71.4298 207.033 70.6877 208.551 70.6517C210.069 70.6156 211.704 71.01 212.705 72.2355C214.696 74.6675 215.084 78.3314 215.226 81.5797C216.322 80.9407 217.574 80.6178 218.843 80.6468C219.532 80.6079 220.213 80.807 220.772 81.2108C222.03 78.7809 222.768 76.1708 223.342 73.4632C223.628 72.1189 223.826 70.7322 223.656 69.3689C223.613 68.8505 223.455 68.3483 223.192 67.8995C222.978 67.5929 222.698 67.3377 222.374 67.1521C222.049 66.9666 221.688 66.8554 221.315 66.8266C220.594 66.7461 220.064 66.7185 219.356 66.9284Z" fill="#603813"/>
<path d="M133.19 91.6025C129.75 93.2683 126.246 94.8109 122.719 96.3102C121.658 96.7602 120.586 97.2124 119.448 97.4374L119.22 103.543L119.019 108.774C119.227 108.903 119.447 109.013 119.676 109.103C120.221 110.416 121.185 111.534 122.434 112.301C123.682 113.068 125.152 113.446 126.638 113.381C128.124 113.317 129.551 112.813 130.721 111.941C131.89 111.068 132.742 109.871 133.158 108.517L133.354 108.46C133.354 108.196 133.354 107.932 133.354 107.666C133.409 107.322 133.437 106.974 133.436 106.626C133.436 106.297 133.411 105.969 133.361 105.644V104.276C133.338 102.532 133.407 100.789 133.568 99.0514C133.628 98.5191 133.704 97.9891 133.797 97.4612C134.025 96.1479 134.305 94.8455 134.597 93.5431C134.839 92.4715 135.08 91.4005 135.32 90.3303C134.641 90.9123 134.006 91.2065 133.19 91.6025Z" fill="#FFCFCA"/>
<path d="M112.342 81.0947C112.703 85.3797 114.656 89.4039 117.853 92.4509C119.304 93.8372 121.037 94.9289 122.947 95.6593C125.069 96.4015 127.331 96.7104 129.587 96.5659C130.917 96.5328 132.23 96.2756 133.465 95.8065C134.928 95.2029 136.15 94.1817 137.289 93.1237C139.234 91.3129 141.027 89.3311 142.36 87.066C143.692 84.8008 144.545 82.2673 144.536 79.682C144.564 78.803 144.409 77.9273 144.08 77.1052C143.603 76.0235 142.711 75.1581 141.798 74.3814C138.79 71.7852 135.261 69.652 131.339 68.62C127.283 67.5534 122.999 67.6962 118.793 67.8498C117.728 67.8866 116.756 68.0856 115.901 68.7152C115.203 69.2323 114.819 70.1085 114.436 70.8463C113.378 72.8855 112.692 75.0801 112.408 77.3367C112.254 78.5842 112.232 79.8431 112.342 81.0947Z" fill="#534741"/>
<path d="M119.215 103.543C123.158 102.725 126.944 101.339 130.443 99.4323C131.552 98.8244 132.702 98.171 133.797 97.4635C134.025 96.1503 134.305 94.8478 134.597 93.5454C134.839 92.4738 135.08 91.4028 135.32 90.3326C134.636 90.9146 134.011 91.2089 133.194 91.6048C129.754 93.2707 126.25 94.8132 122.724 96.3125C121.663 96.7625 120.591 97.2147 119.453 97.4397L119.215 103.543Z" fill="#F9BFBB"/>
<path d="M112.818 79.0974C113.064 78.1568 113.363 77.2295 113.715 76.3195C114.824 73.3968 116.865 70.8743 119.554 69.102C124.758 65.7703 132.025 66.5859 136.22 70.9713C137.213 72.0056 138.015 73.1912 138.593 74.4783C140.005 77.6175 140.08 80.9948 139.309 84.2465C138.596 87.1239 137.361 89.8618 135.659 92.3379C134.654 93.847 133.449 95.2283 132.076 96.4486C131.273 97.1499 130.397 97.7719 129.461 98.3048C127.59 99.4066 125.452 100.037 123.252 100.137C121.244 100.2 119.262 99.7028 117.549 98.7072C115.654 97.5844 114.508 95.8579 113.685 93.9627C111.657 89.3026 111.536 83.9847 112.818 79.0974Z" fill="#FFCFCA"/>
<path d="M134.732 91.3399C135.686 91.7825 136.745 91.9826 137.805 91.9204C138.865 91.8582 139.89 91.5359 140.779 90.9851C141.517 90.5028 142.132 89.8706 142.581 89.1345C143.029 88.3984 143.299 87.5768 143.37 86.7295C143.397 86.4221 143.397 86.113 143.37 85.8056C143.321 85.265 143.161 84.7387 142.898 84.2566C142.541 83.677 142.019 83.2044 141.392 82.8929C140.766 82.5814 140.059 82.4437 139.353 82.4955C138.649 82.5652 137.973 82.7974 137.386 83.1719C136.798 83.5464 136.316 84.0518 135.982 84.6438L135.505 87.2184L134.732 91.3399Z" fill="#FFCFCA"/>
<path d="M128.8 75.5385C125.622 74.9716 122.437 74.2988 119.429 73.23C116.985 72.3646 114.278 70.6966 113.623 68.1891C112.804 65.0499 115.585 62.644 118.354 61.413C123.758 59.0115 130.444 59.4356 135.374 62.6722C138.374 64.6412 140.587 67.5104 141.658 70.8177C142.252 72.6892 142.498 75.519 140.176 76.3866C137.477 77.3969 134.14 76.4493 131.4 75.9885C130.538 75.8413 129.669 75.7029 128.8 75.5385Z" fill="#534741"/>
<path d="M147.049 76.1959C146.771 74.2487 145.867 72.4617 144.2 71.4557C141.777 69.9953 138.116 70.4064 136.644 72.9052C135.684 74.5365 135.668 76.6156 135.93 78.4221C136.027 79.2747 136.31 80.0987 136.763 80.8409C137.082 81.332 138.164 82.5998 138.885 82.5003C139.126 82.4657 139.377 82.4354 139.585 82.4202H139.708C140.434 82.4195 141.148 82.6025 141.775 82.9503C142.238 83.1861 142.631 83.5301 142.915 83.9498C143.828 84.8909 145.197 83.2662 145.671 82.5803C146.841 80.9123 147.368 78.4546 147.049 76.1959Z" fill="#534741"/>
<path d="M126.948 78.3966C126.666 78.3767 126.383 78.3818 126.102 78.4117L124.606 78.5286C124.441 78.5286 124.234 78.5286 124.161 78.3901C124.146 78.3558 124.138 78.3191 124.138 78.2819C124.138 78.2448 124.146 78.208 124.161 78.1738C124.282 77.899 124.635 77.8081 124.946 77.7692C125.721 77.6605 126.513 77.7455 127.243 78.0158C127.384 78.0721 128.187 78.4204 128.13 78.6C128.073 78.7795 127.11 78.4117 126.948 78.3966Z" fill="#211A17"/>
<path d="M116.054 78.0823C116.337 78.082 116.62 78.1066 116.898 78.1558L118.381 78.3722C118.545 78.3981 118.753 78.4046 118.837 78.2683C118.867 78.199 118.867 78.1213 118.837 78.052C118.737 77.7707 118.381 77.6539 118.084 77.5955C117.319 77.4323 116.523 77.4622 115.774 77.682C115.63 77.7275 114.799 78.0195 114.843 78.2013C114.886 78.383 115.892 78.0823 116.054 78.0823Z" fill="#211A17"/>
<path d="M116.95 90.5208C117.509 91.9011 118.547 92.853 119.786 92.9504C120.988 93.0456 122.128 92.3251 122.918 91.1309C123.503 90.2101 123.858 89.1737 123.953 88.102L123.725 88.0825L116.777 87.5395L116.519 87.52C116.431 88.5381 116.578 89.5621 116.95 90.5208Z" fill="#CE7872"/>
<path d="M116.763 87.5493C117.113 88.1035 117.598 88.5705 118.176 88.9118C118.755 89.2531 119.411 89.4587 120.09 89.5118C120.769 89.5649 121.452 89.4638 122.081 89.217C122.711 88.9701 123.27 88.5846 123.711 88.0924L116.763 87.5493Z" fill="white"/>
<path d="M116.939 90.5205C117.498 91.9009 118.536 92.8528 119.774 92.9501C120.976 93.0453 122.117 92.3249 122.906 91.1307C122.568 90.9184 122.212 90.7331 121.841 90.5768C121.077 90.2296 120.243 90.0447 119.397 90.0349C118.55 90.0252 117.711 90.191 116.939 90.5205Z" fill="#EA8C8B"/>
<path d="M124.196 82.6648C124.166 83.5626 124.684 84.3068 125.355 84.3241C126.025 84.3415 126.586 83.6318 126.616 82.734C126.646 81.8361 126.126 81.0919 125.457 81.0724C124.789 81.0529 124.223 81.7604 124.196 82.6648Z" fill="#211A17"/>
<path d="M125.066 82.1432C125.142 82.1512 125.212 82.186 125.262 82.2406C125.312 82.2952 125.338 82.3656 125.336 82.4378C125.334 82.5101 125.303 82.5788 125.249 82.6305C125.196 82.6821 125.124 82.7128 125.048 82.7165C124.972 82.7085 124.903 82.6737 124.853 82.6191C124.803 82.5645 124.776 82.4941 124.779 82.4219C124.781 82.3496 124.812 82.2809 124.865 82.2292C124.918 82.1776 124.99 82.1469 125.066 82.1432Z" fill="white"/>
<path d="M117.733 82.4811C117.706 83.379 117.14 84.0908 116.472 84.0713C115.803 84.0519 115.286 83.3098 115.313 82.4119C115.34 81.5141 115.906 80.8001 116.574 80.8196C117.243 80.8391 117.763 81.5811 117.733 82.4811Z" fill="#211A17"/>
<path d="M116.16 81.7191C116.236 81.7272 116.306 81.7619 116.355 81.8165C116.405 81.8711 116.432 81.9415 116.43 82.0137C116.427 82.086 116.396 82.1547 116.343 82.2064C116.29 82.258 116.218 82.2887 116.142 82.2924C116.066 82.2844 115.996 82.2496 115.946 82.195C115.897 82.1404 115.87 82.07 115.872 81.9978C115.875 81.9256 115.905 81.8568 115.959 81.8052C116.012 81.7535 116.084 81.7228 116.16 81.7191Z" fill="white"/>
<path d="M119.803 84.4987C120.003 84.3583 120.246 84.2854 120.494 84.2916C120.742 84.2979 120.981 84.383 121.172 84.5333L120.093 86.303C119.943 86.2821 119.803 86.2223 119.687 86.1303C119.571 86.0383 119.484 85.9176 119.436 85.7816C119.348 85.5582 119.336 85.3142 119.402 85.084C119.468 84.8538 119.608 84.649 119.803 84.4987Z" fill="#CE7872"/>
<path d="M129.337 84.5988C131.116 84.7156 132.478 85.9206 132.378 87.2923C132.277 88.6639 130.754 89.6721 128.974 89.564C127.195 89.4558 125.833 88.2399 125.934 86.8683C126.034 85.4966 127.558 84.4819 129.337 84.5988Z" fill="#F9BFBB"/>
<path d="M112.21 85.439C112.265 84.671 113.122 84.0998 114.119 84.1647C115.116 84.2296 115.88 84.9089 115.825 85.6791C115.771 86.4493 114.913 87.0205 113.916 86.9534C112.919 86.8864 112.153 86.2005 112.21 85.439Z" fill="#F9BFBB"/>
<path d="M102.682 187.802C101.2 193.735 100.605 199.854 100.916 205.961C101.118 209.839 113.56 321.757 113.56 321.757L129.375 320.335L126.644 215.692L127.303 216.283C127.303 216.283 136.729 260.311 137.357 267.272C137.918 273.522 145.437 323.778 145.437 323.778L160.788 323.029L157.31 259.495L152.656 201.86L150.793 185.063L102.682 187.802Z" fill="#603813"/>
<path d="M129.689 206.673C129.456 206.833 129.205 206.966 128.941 207.069C128.244 207.406 127.504 207.645 126.742 207.78C126.205 207.873 125.655 207.873 125.118 207.78C124.491 207.658 123.91 207.363 123.443 206.927C122.964 206.412 122.624 205.784 122.455 205.101C122.268 204.412 122.163 203.694 122.036 202.967C121.542 200.056 121.221 197.399 121.041 195.482C120.951 194.524 120.899 193.738 120.869 193.199C120.835 192.918 120.835 192.634 120.869 192.354C120.947 192.625 120.997 192.903 121.019 193.184C121.093 193.798 121.191 194.562 121.303 195.43C121.55 197.354 121.909 199.996 122.403 202.915C122.649 204.352 122.814 205.812 123.689 206.658C124.093 207.014 124.571 207.276 125.089 207.425C125.606 207.574 126.15 207.606 126.682 207.518C127.429 207.404 128.162 207.209 128.866 206.935C129.128 206.812 129.405 206.724 129.689 206.673Z" fill="#42270E"/>
<path d="M124.696 192.915C124.696 192.915 124.816 192.825 125.063 192.81C125.418 192.815 125.762 192.936 126.043 193.154C126.258 193.315 126.434 193.522 126.557 193.761C126.68 194 126.747 194.263 126.753 194.532C126.72 194.863 126.592 195.177 126.386 195.439C126.18 195.7 125.904 195.897 125.59 196.007C125.276 196.117 124.937 196.136 124.613 196.06C124.289 195.984 123.994 195.817 123.761 195.58C123.602 195.369 123.492 195.124 123.44 194.865C123.389 194.606 123.396 194.339 123.462 194.083C123.536 193.734 123.732 193.423 124.015 193.207C124.217 193.057 124.352 193.042 124.359 193.057C124.033 193.336 123.807 193.715 123.716 194.135C123.672 194.352 123.677 194.576 123.73 194.791C123.783 195.006 123.883 195.206 124.023 195.377C124.205 195.569 124.442 195.702 124.701 195.756C124.96 195.811 125.229 195.786 125.474 195.684C125.726 195.609 125.95 195.461 126.117 195.258C126.285 195.056 126.389 194.808 126.417 194.547C126.415 194.325 126.366 194.106 126.273 193.905C126.181 193.703 126.046 193.524 125.878 193.379C125.545 193.1 125.13 192.937 124.696 192.915Z" fill="#42270E"/>
<path d="M152.444 200.834C152.247 200.889 152.043 200.915 151.838 200.909C151.288 200.95 150.735 200.95 150.185 200.909C146.515 200.612 143.06 199.061 140.399 196.515C139.999 196.134 139.626 195.723 139.285 195.288C139.045 194.981 138.926 194.801 138.948 194.786C138.97 194.771 139.546 195.407 140.579 196.321C143.278 198.707 146.638 200.216 150.215 200.647C151.576 200.767 152.437 200.744 152.444 200.834Z" fill="#42270E"/>
<path d="M109.795 192.892C109.545 193.524 109.213 194.121 108.808 194.666C107.916 196.037 106.861 197.294 105.666 198.409C104.474 199.52 103.15 200.481 101.723 201.268C101.149 201.623 100.53 201.9 99.8828 202.092C100.432 201.712 101.002 201.362 101.589 201.044C102.95 200.197 104.23 199.224 105.411 198.139C106.582 197.042 107.647 195.837 108.591 194.539C108.96 193.967 109.362 193.417 109.795 192.892Z" fill="#42270E"/>
<path d="M94.0816 129.673C91.7325 136.537 91.9943 135.945 87.5954 156.455C86.7874 160.242 88.2163 166.185 91.6278 167.982C95.0392 169.778 101.099 167.802 103.126 164.509L106.388 133.558L94.0816 129.673Z" fill="#FFCFCA"/>
<path d="M150.802 166.867L150.705 150.556L150.772 148.955L167.313 145.092C167.313 145.092 164.067 134.388 161.089 122.884C159.368 116.237 153.645 112.899 152.261 112.18L151.954 112.038L133.304 105.167C132.182 106.289 130.312 110.78 125.823 110.78C120.96 110.78 120.8 107.634 119.09 105.541L106.349 109.366C103.25 110.43 100.624 112.549 98.9278 115.354C96.6835 119.358 89.509 137.585 89.3594 137.959L102.646 139.149C102.646 139.149 100.289 182.278 101.15 189.981C101.15 189.981 104.382 192.226 112.521 192.601C129.04 193.349 153.615 192.204 153.615 192.204C153.226 189.719 152.822 185.564 152.598 183.461L150.802 166.867Z" fill="#397272"/>
<path d="M103.12 123.123C103.187 123.123 102.836 133.408 102.334 146.088C101.833 158.767 101.369 169.052 101.324 169.052C101.28 169.052 101.609 158.767 102.073 146.08C102.536 133.393 103.053 123.116 103.12 123.123Z" fill="#263238"/>
<path d="M148.983 125.983C148.871 125.983 149.2 135.115 149.731 146.365C150.262 157.615 150.786 166.732 150.906 166.724C151.025 166.717 150.689 157.6 150.157 146.342C149.626 135.085 149.103 125.983 148.983 125.983Z" fill="#263238"/>
<path d="M167.385 152.854C166.846 148.805 166.398 145.227 166.398 145.227L153.171 148.303L153.739 150.437L143.513 140.04L141.889 140.182L136.742 145.534C136.742 145.534 141.231 155.018 143.842 158.708C147.238 163.513 152.572 170.834 159.882 170.22C166.637 169.651 168.35 160.115 167.385 152.854Z" fill="#FFCFCA"/>
<path d="M160.228 155.28C159.426 154.224 158.443 153.32 157.325 152.607C156.289 151.778 155.121 151.13 153.869 150.691C153.809 150.803 155.365 151.687 157.071 152.937C158.777 154.187 160.146 155.369 160.228 155.28Z" fill="#F9BFBB"/>
<path d="M125.656 126.477L130.205 124.156L136.1 126.027L139.018 128.722L143.506 140.04L147.105 144.598L140.753 152.832L136.736 145.496C136.736 145.496 133.332 143.999 131.963 141.859C130.594 139.718 129.988 138.535 129.988 138.535C129.988 138.535 128.02 137.592 127.654 136.679C127.438 136.169 127.321 135.623 127.31 135.069L128.305 133.61C128.241 132.976 128.345 132.336 128.604 131.754C128.792 131.482 129.051 131.268 129.352 131.132C129.352 131.132 129.06 129.905 129.517 129.463C130.379 128.956 131.291 128.539 132.24 128.221L130.257 127.09C130.257 127.09 125.903 128.49 125.656 126.477Z" fill="#FFCFCA"/>
<path d="M132.422 130.586C132.422 130.646 131.726 130.661 130.926 130.84C130.125 131.02 129.43 131.275 129.43 131.222C129.879 130.922 130.391 130.727 130.926 130.653C131.413 130.52 131.925 130.496 132.422 130.586Z" fill="#F9BFBB"/>
<path d="M131.048 133.123C130.613 133.205 130.173 133.263 129.731 133.296C129.302 133.396 128.868 133.471 128.43 133.52C128.815 133.282 129.25 133.138 129.701 133.101C130.146 133.006 130.607 133.014 131.048 133.123Z" fill="#F9BFBB"/>
<path d="M129.13 137.106C129.078 137.106 129.04 136.844 129.048 136.522C129.055 136.2 129.1 135.945 129.153 135.945C129.205 135.945 129.242 136.207 129.242 136.529C129.242 136.851 129.182 137.106 129.13 137.106Z" fill="#F9BFBB"/>
<path d="M129.996 138.333C129.936 137.957 129.793 137.599 129.577 137.285C129.32 137.004 129.01 136.777 128.664 136.619C128.664 136.619 128.806 136.582 129.023 136.619C129.319 136.707 129.58 136.885 129.771 137.128C129.953 137.361 130.065 137.642 130.093 137.936C130.071 138.198 130.018 138.333 129.996 138.333Z" fill="#F9BFBB"/>
<path d="M133.55 134.703C133.338 134.403 133.068 134.149 132.757 133.954C132.418 133.798 132.052 133.707 131.68 133.685C131.68 133.685 131.799 133.602 132.024 133.588C132.314 133.573 132.603 133.641 132.856 133.783C133.11 133.924 133.319 134.134 133.46 134.388C133.565 134.561 133.572 134.695 133.55 134.703Z" fill="#F9BFBB"/>
<path d="M135.61 132.188C135.558 132.188 135.378 131.739 134.862 131.439C134.55 131.275 134.214 131.159 133.867 131.095C133.867 131.095 133.987 131.028 134.196 131.028C134.463 131.046 134.72 131.131 134.944 131.275C135.177 131.418 135.366 131.623 135.491 131.866C135.625 132.053 135.633 132.18 135.61 132.188Z" fill="#F9BFBB"/>
<path d="M137.014 130.953C137.014 130.953 137.014 130.796 136.962 130.563C136.925 130.263 136.811 129.977 136.633 129.733C136.45 129.489 136.208 129.296 135.93 129.171C135.713 129.074 135.563 129.044 135.571 129.014C135.578 128.984 135.735 128.969 135.975 129.014C136.301 129.11 136.587 129.31 136.79 129.583C136.989 129.857 137.096 130.187 137.097 130.526C137.097 130.811 137.037 130.96 137.014 130.953Z" fill="#F9BFBB"/>
<path d="M135.075 127.996C135.075 128.063 134.124 128.078 132.98 128.251C131.835 128.423 130.967 128.834 130.938 128.782C131.542 128.381 132.231 128.125 132.95 128.034C133.445 127.955 133.945 127.917 134.446 127.921C134.658 127.909 134.871 127.934 135.075 127.996Z" fill="#F9BFBB"/>
<g opacity="0.3">
<path d="M122.141 153.55C122.079 152.23 121.693 150.945 121.018 149.808C119.687 147.929 117.076 147.562 114.787 147.645C112.497 147.727 110.103 148.206 107.949 147.42L101.5 166.567C103.918 165.959 106.004 164.431 107.313 162.308C107.971 161.238 108.45 159.995 109.445 159.232C110.822 158.176 112.722 158.326 114.457 158.311C116.268 158.29 118.067 158.026 119.806 157.525C120.567 157.374 121.257 156.98 121.774 156.402C122.365 155.609 122.275 154.531 122.141 153.55Z" fill="black"/>
</g>
<path d="M105.539 131.14L107.543 152.45C107.549 152.934 107.671 153.41 107.901 153.836C108.13 154.262 108.459 154.627 108.86 154.898L121.78 154.628C122.554 153.588 122.907 152.295 122.768 151.006L121.331 130.608C121.249 129.381 120.793 128.498 120.239 128.483L106.631 128.168C105.935 128.153 105.396 129.62 105.539 131.14Z" fill="#263238"/>
<path d="M103.658 135.421C103.406 135.088 103.273 134.679 103.282 134.261C103.29 133.843 103.438 133.439 103.703 133.116C103.981 132.795 104.326 132.54 104.714 132.369C105.102 132.198 105.524 132.116 105.948 132.128C106.785 132.151 107.609 132.342 108.371 132.689C109.308 133.084 110.205 133.567 111.05 134.134C111.375 134.299 111.662 134.529 111.893 134.812C112.123 135.094 112.292 135.422 112.389 135.773C112.494 136.522 111.693 137.27 111.072 136.918C111.512 137.118 111.899 137.418 112.2 137.795C112.502 138.173 112.71 138.616 112.808 139.089C112.92 139.995 112.419 140.474 111.536 140.713C111.868 140.853 112.132 141.116 112.271 141.448C112.411 141.779 112.416 142.152 112.284 142.487C112.076 142.803 111.76 143.033 111.396 143.134C111.032 143.236 110.643 143.203 110.302 143.041C109.624 142.691 109.045 142.176 108.618 141.544C109.043 142.574 109.125 143.713 108.85 144.793C106.92 144.044 105.02 141.941 105.596 139.905C105.123 139.516 104.793 138.98 104.657 138.383C104.522 137.785 104.589 137.159 104.848 136.604C104.405 136.398 104.026 136.075 103.752 135.67C103.478 135.266 103.319 134.794 103.292 134.306" fill="#FFCFCA"/>
<path d="M103.456 133.565L103.299 142.674L100.935 146.23L90.1094 155.923C90.1094 155.923 91.7104 169.089 96.603 167.652C101.496 166.215 102.67 165.28 105.58 159.973C107.122 157.121 108.079 152.487 108.969 149.845C109.493 148.288 109.037 143.273 109.037 143.273L103.456 133.565Z" fill="#FFCFCA"/>
<path d="M111.531 140.728C111.237 140.528 110.959 140.305 110.7 140.062C110.069 139.511 109.322 139.107 108.516 138.879C108.072 138.779 107.612 138.779 107.169 138.879C106.806 138.96 106.466 139.121 106.174 139.351C105.914 139.577 105.692 139.842 105.516 140.137C105.516 140.137 105.516 140.032 105.598 139.86C105.712 139.62 105.875 139.406 106.077 139.231C106.378 138.969 106.737 138.781 107.124 138.685C107.596 138.573 108.088 138.573 108.56 138.685C109.404 138.917 110.175 139.357 110.805 139.965C111.078 140.188 111.322 140.444 111.531 140.728Z" fill="#FFCFCA"/>
<path d="M111.399 137.016C111.045 136.908 110.706 136.757 110.389 136.567C110.09 136.417 109.73 136.23 109.319 136.065C108.866 135.899 108.401 135.769 107.928 135.676C107.46 135.577 106.979 135.56 106.506 135.623C106.127 135.689 105.767 135.837 105.451 136.058C105.15 136.271 104.896 136.543 104.703 136.858C104.714 136.759 104.744 136.662 104.793 136.574C104.92 136.327 105.098 136.11 105.317 135.938C105.644 135.682 106.029 135.509 106.439 135.436C106.933 135.339 107.441 135.339 107.935 135.436C108.421 135.531 108.897 135.672 109.356 135.855C109.727 136.015 110.087 136.197 110.434 136.402C110.769 136.584 111.091 136.79 111.399 137.016Z" fill="#F9BFBB"/>
<path d="M91.2749 161.163C91.0081 160.052 90.9624 158.9 91.1402 157.772C91.3555 156.554 91.7889 155.385 92.4195 154.321C93.21 153.03 94.1713 151.852 95.2773 150.818C96.4444 149.688 97.6414 148.708 98.7112 147.824C99.6672 147.011 100.581 146.149 101.449 145.242C102.029 144.603 102.556 143.92 103.028 143.198C103.207 142.944 103.358 142.67 103.477 142.383C103.272 142.618 103.084 142.868 102.916 143.131C102.406 143.797 101.854 144.43 101.262 145.025C100.514 145.773 99.579 146.627 98.4942 147.532C97.4095 148.438 96.2499 149.419 95.0304 150.526C93.8996 151.583 92.9248 152.795 92.1352 154.127C91.4859 155.233 91.0518 156.452 90.8559 157.72C90.7321 158.566 90.7625 159.429 90.9457 160.265C90.9944 160.491 91.0594 160.714 91.1402 160.931C91.23 161.08 91.2599 161.163 91.2749 161.163Z" fill="#F9BFBB"/>
</svg>
