<svg width="20" height="14" viewBox="0 0 20 14" fill="none" xmlns="http://www.w3.org/2000/svg">
<rect width="20" height="14" rx="2" fill="white"/>
<mask id="mask0_2396_3769" style="mask-type:luminance" maskUnits="userSpaceOnUse" x="0" y="0" width="20" height="14">
<rect width="20" height="14" rx="2" fill="white"/>
</mask>
<g mask="url(#mask0_2396_3769)">
<rect width="20" height="14" fill="#043CAE"/>
<path fill-rule="evenodd" clip-rule="evenodd" d="M9.32636 2.9933L9.99979 2.8L10.6732 2.9933L10.476 2.33334L10.6732 1.67337L9.99979 1.86667L9.32636 1.67337L9.5236 2.33334L9.32636 2.9933ZM9.32636 12.3266L9.99979 12.1333L10.6732 12.3266L10.476 11.6667L10.6732 11.0067L9.99979 11.2L9.32636 11.0067L9.5236 11.6667L9.32636 12.3266ZM14.7617 7.46667L14.0883 7.65997L14.2855 7L14.0883 6.34004L14.7617 6.53334L15.4351 6.34004L15.2379 7L15.4351 7.65997L14.7617 7.46667ZM4.56445 7.65997L5.23789 7.46667L5.91132 7.65997L5.71408 7L5.91132 6.34004L5.23789 6.53334L4.56445 6.34004L4.7617 7L4.56445 7.65997ZM14.1237 5.13334L13.4503 5.32664L13.6475 4.66667L13.4503 4.0067L14.1237 4.2L14.7972 4.0067L14.5999 4.66667L14.7972 5.32664L14.1237 5.13334ZM5.20243 9.9933L5.87586 9.8L6.5493 9.9933L6.35205 9.33334L6.5493 8.67337L5.87586 8.86667L5.20243 8.67337L5.39967 9.33334L5.20243 9.9933ZM12.3807 3.42522L11.7073 3.61852L11.9046 2.95855L11.7073 2.29859L12.3807 2.49188L13.0542 2.29859L12.8569 2.95855L13.0542 3.61852L12.3807 3.42522ZM6.94541 11.7014L7.61884 11.5081L8.29228 11.7014L8.09503 11.0415L8.29228 10.3815L7.61884 10.5748L6.94541 10.3815L7.14265 11.0415L6.94541 11.7014ZM14.1237 9.8L13.4503 9.9933L13.6475 9.33334L13.4503 8.67337L14.1237 8.86667L14.7972 8.67337L14.5999 9.33334L14.7972 9.9933L14.1237 9.8ZM5.20243 5.32664L5.87586 5.13334L6.5493 5.32664L6.35205 4.66667L6.5493 4.0067L5.87586 4.2L5.20243 4.0067L5.39967 4.66667L5.20243 5.32664ZM12.3807 11.5081L11.7073 11.7014L11.9046 11.0415L11.7073 10.3815L12.3807 10.5748L13.0542 10.3815L12.8569 11.0415L13.0542 11.7014L12.3807 11.5081ZM6.94541 3.61852L7.61884 3.42522L8.29228 3.61852L8.09503 2.95855L8.29228 2.29859L7.61884 2.49188L6.94541 2.29859L7.14265 2.95855L6.94541 3.61852Z" fill="#FFD429"/>
</g>
</svg>
