<svg width="21" height="14" viewBox="0 0 21 14" fill="none" xmlns="http://www.w3.org/2000/svg">
<rect x="0.5" width="20" height="14" rx="2" fill="white"/>
<mask id="mask0_2396_3734" style="mask-type:luminance" maskUnits="userSpaceOnUse" x="0" y="0" width="21" height="14">
<rect x="0.5" width="20" height="14" rx="2" fill="white"/>
</mask>
<g mask="url(#mask0_2396_3734)">
<path fill-rule="evenodd" clip-rule="evenodd" d="M20.5 0H0.5V0.933333H20.5V0ZM20.5 1.86667H0.5V2.8H20.5V1.86667ZM0.5 3.73333H20.5V4.66667H0.5V3.73333ZM20.5 5.6H0.5V6.53333H20.5V5.6ZM0.5 7.46667H20.5V8.4H0.5V7.46667ZM20.5 9.33333H0.5V10.2667H20.5V9.33333ZM0.5 11.2H20.5V12.1333H0.5V11.2ZM20.5 13.0667H0.5V14H20.5V13.0667Z" fill="#D02F44"/>
<rect x="0.5" width="8.57143" height="6.53333" fill="#46467F"/>
<g filter="url(#filter0_d_2396_3734)">
<path fill-rule="evenodd" clip-rule="evenodd" d="M2.40551 1.39999C2.40551 1.65772 2.19231 1.86665 1.92932 1.86665C1.66632 1.86665 1.45312 1.65772 1.45312 1.39999C1.45312 1.14225 1.66632 0.933319 1.92932 0.933319C2.19231 0.933319 2.40551 1.14225 2.40551 1.39999ZM4.31027 1.39999C4.31027 1.65772 4.09707 1.86665 3.83408 1.86665C3.57108 1.86665 3.35789 1.65772 3.35789 1.39999C3.35789 1.14225 3.57108 0.933319 3.83408 0.933319C4.09707 0.933319 4.31027 1.14225 4.31027 1.39999ZM5.73884 1.86665C6.00183 1.86665 6.21503 1.65772 6.21503 1.39999C6.21503 1.14225 6.00183 0.933319 5.73884 0.933319C5.47585 0.933319 5.26265 1.14225 5.26265 1.39999C5.26265 1.65772 5.47585 1.86665 5.73884 1.86665ZM8.11979 1.39999C8.11979 1.65772 7.90659 1.86665 7.6436 1.86665C7.38061 1.86665 7.16741 1.65772 7.16741 1.39999C7.16741 1.14225 7.38061 0.933319 7.6436 0.933319C7.90659 0.933319 8.11979 1.14225 8.11979 1.39999ZM2.8817 2.79999C3.14469 2.79999 3.35789 2.59105 3.35789 2.33332C3.35789 2.07559 3.14469 1.86665 2.8817 1.86665C2.6187 1.86665 2.40551 2.07559 2.40551 2.33332C2.40551 2.59105 2.6187 2.79999 2.8817 2.79999ZM5.26265 2.33332C5.26265 2.59105 5.04945 2.79999 4.78646 2.79999C4.52347 2.79999 4.31027 2.59105 4.31027 2.33332C4.31027 2.07559 4.52347 1.86665 4.78646 1.86665C5.04945 1.86665 5.26265 2.07559 5.26265 2.33332ZM6.69122 2.79999C6.95421 2.79999 7.16741 2.59105 7.16741 2.33332C7.16741 2.07559 6.95421 1.86665 6.69122 1.86665C6.42823 1.86665 6.21503 2.07559 6.21503 2.33332C6.21503 2.59105 6.42823 2.79999 6.69122 2.79999ZM8.11979 3.26665C8.11979 3.52439 7.90659 3.73332 7.6436 3.73332C7.38061 3.73332 7.16741 3.52439 7.16741 3.26665C7.16741 3.00892 7.38061 2.79999 7.6436 2.79999C7.90659 2.79999 8.11979 3.00892 8.11979 3.26665ZM5.73884 3.73332C6.00183 3.73332 6.21503 3.52439 6.21503 3.26665C6.21503 3.00892 6.00183 2.79999 5.73884 2.79999C5.47585 2.79999 5.26265 3.00892 5.26265 3.26665C5.26265 3.52439 5.47585 3.73332 5.73884 3.73332ZM4.31027 3.26665C4.31027 3.52439 4.09707 3.73332 3.83408 3.73332C3.57108 3.73332 3.35789 3.52439 3.35789 3.26665C3.35789 3.00892 3.57108 2.79999 3.83408 2.79999C4.09707 2.79999 4.31027 3.00892 4.31027 3.26665ZM1.92932 3.73332C2.19231 3.73332 2.40551 3.52439 2.40551 3.26665C2.40551 3.00892 2.19231 2.79999 1.92932 2.79999C1.66632 2.79999 1.45312 3.00892 1.45312 3.26665C1.45312 3.52439 1.66632 3.73332 1.92932 3.73332ZM3.35789 4.19999C3.35789 4.45772 3.14469 4.66665 2.8817 4.66665C2.6187 4.66665 2.40551 4.45772 2.40551 4.19999C2.40551 3.94225 2.6187 3.73332 2.8817 3.73332C3.14469 3.73332 3.35789 3.94225 3.35789 4.19999ZM4.78646 4.66665C5.04945 4.66665 5.26265 4.45772 5.26265 4.19999C5.26265 3.94225 5.04945 3.73332 4.78646 3.73332C4.52347 3.73332 4.31027 3.94225 4.31027 4.19999C4.31027 4.45772 4.52347 4.66665 4.78646 4.66665ZM7.16741 4.19999C7.16741 4.45772 6.95421 4.66665 6.69122 4.66665C6.42823 4.66665 6.21503 4.45772 6.21503 4.19999C6.21503 3.94225 6.42823 3.73332 6.69122 3.73332C6.95421 3.73332 7.16741 3.94225 7.16741 4.19999ZM7.6436 5.59999C7.90659 5.59999 8.11979 5.39105 8.11979 5.13332C8.11979 4.87559 7.90659 4.66665 7.6436 4.66665C7.38061 4.66665 7.16741 4.87559 7.16741 5.13332C7.16741 5.39105 7.38061 5.59999 7.6436 5.59999ZM6.21503 5.13332C6.21503 5.39105 6.00183 5.59999 5.73884 5.59999C5.47585 5.59999 5.26265 5.39105 5.26265 5.13332C5.26265 4.87559 5.47585 4.66665 5.73884 4.66665C6.00183 4.66665 6.21503 4.87559 6.21503 5.13332ZM3.83408 5.59999C4.09707 5.59999 4.31027 5.39105 4.31027 5.13332C4.31027 4.87559 4.09707 4.66665 3.83408 4.66665C3.57108 4.66665 3.35789 4.87559 3.35789 5.13332C3.35789 5.39105 3.57108 5.59999 3.83408 5.59999ZM2.40551 5.13332C2.40551 5.39105 2.19231 5.59999 1.92932 5.59999C1.66632 5.59999 1.45312 5.39105 1.45312 5.13332C1.45312 4.87559 1.66632 4.66665 1.92932 4.66665C2.19231 4.66665 2.40551 4.87559 2.40551 5.13332Z" fill="url(#paint0_linear_2396_3734)"/>
</g>
</g>
<defs>
<filter id="filter0_d_2396_3734" x="1.45312" y="0.933319" width="6.66602" height="5.66666" filterUnits="userSpaceOnUse" color-interpolation-filters="sRGB">
<feFlood flood-opacity="0" result="BackgroundImageFix"/>
<feColorMatrix in="SourceAlpha" type="matrix" values="0 0 0 0 0 0 0 0 0 0 0 0 0 0 0 0 0 0 127 0" result="hardAlpha"/>
<feOffset dy="1"/>
<feColorMatrix type="matrix" values="0 0 0 0 0 0 0 0 0 0 0 0 0 0 0 0 0 0 0.06 0"/>
<feBlend mode="normal" in2="BackgroundImageFix" result="effect1_dropShadow_2396_3734"/>
<feBlend mode="normal" in="SourceGraphic" in2="effect1_dropShadow_2396_3734" result="shape"/>
</filter>
<linearGradient id="paint0_linear_2396_3734" x1="1.45312" y1="0.933319" x2="1.45312" y2="5.59999" gradientUnits="userSpaceOnUse">
<stop stop-color="white"/>
<stop offset="1" stop-color="#F0F0F0"/>
</linearGradient>
</defs>
</svg>
