<svg width="107" height="14" viewBox="0 0 107 14" fill="none" xmlns="http://www.w3.org/2000/svg">
<path d="M3.3 1.5V6.3H10.6V7.8H3.3V14H0.4V-9.53674e-07H13V1.5H3.3ZM17.6945 14H14.7945V-9.53674e-07H17.6945V14ZM34.8977 -9.53674e-07V14H31.0977L23.5977 2.6H23.3977V14H20.4977V-9.53674e-07H24.2977L31.7977 11.4H31.9977V-9.53674e-07H34.8977ZM41.4047 9.1H47.6047L44.6047 1.7H44.4047L41.4047 9.1ZM46.8047 -9.53674e-07L52.5047 14H49.6247L48.3047 10.6H40.7047L39.3847 14H36.5047L42.2047 -9.53674e-07H46.8047ZM68.5109 -9.53674e-07V14H64.7109L57.2109 2.6H57.0109V14H54.1109V-9.53674e-07H57.9109L65.4109 11.4H65.6109V-9.53674e-07H68.5109ZM83.418 1.7L74.118 12.5H83.618V14H70.618V12.3L79.918 1.5H70.818V-9.53674e-07H83.418V1.7ZM88.6125 14H85.7125V-9.53674e-07H88.6125V14ZM95.1156 9.1H101.316L98.3156 1.7H98.1156L95.1156 9.1ZM100.516 -9.53674e-07L106.216 14H103.336L102.016 10.6H94.4156L93.0956 14H90.2156L95.9156 -9.53674e-07H100.516Z" fill="white"/>
</svg>
