<svg width="20" height="20" viewBox="0 0 20 20" fill="none" xmlns="http://www.w3.org/2000/svg">
<path fill-rule="evenodd" clip-rule="evenodd" d="M14.166 1.66675H5.83268C3.5315 1.66675 1.66602 3.53223 1.66602 5.83341V14.1667C1.66602 16.4679 3.5315 18.3334 5.83268 18.3334H14.166C16.4672 18.3334 18.3327 16.4679 18.3327 14.1667V5.83341C18.3327 3.53223 16.4672 1.66675 14.166 1.66675ZM10.4511 7.16127C9.86158 7.07385 9.25952 7.17454 8.73054 7.44902C8.20155 7.7235 7.77259 8.15779 7.50465 8.69011C7.23672 9.22244 7.14346 9.8257 7.23814 10.4141C7.33282 11.0025 7.61061 11.546 8.03202 11.9674C8.45342 12.3888 8.99697 12.6666 9.58535 12.7613C10.1737 12.856 10.777 12.7627 11.3093 12.4948C11.8417 12.2268 12.2759 11.7979 12.5504 11.2689C12.8249 10.7399 12.9256 10.1379 12.8382 9.54835C12.749 8.94703 12.4688 8.39033 12.039 7.96048C11.6091 7.53064 11.0524 7.25043 10.4511 7.16127ZM8.26997 6.5614C8.98565 6.19004 9.8002 6.05381 10.5978 6.17208C11.4113 6.29272 12.1645 6.67182 12.7461 7.25338C13.3276 7.83493 13.7067 8.58811 13.8274 9.40167C13.9456 10.1992 13.8094 11.0138 13.438 11.7295C13.0667 12.4452 12.4791 13.0255 11.7589 13.388C11.0387 13.7505 10.2225 13.8767 9.42648 13.7486C8.63043 13.6205 7.89504 13.2447 7.32491 12.6745C6.75478 12.1044 6.37893 11.369 6.25084 10.573C6.12274 9.7769 6.24892 8.96073 6.61142 8.24052C6.97392 7.52032 7.55428 6.93275 8.26997 6.5614ZM14.583 4.91675C14.3069 4.91675 14.083 5.14061 14.083 5.41675C14.083 5.69289 14.3069 5.91675 14.583 5.91675H14.5913C14.8675 5.91675 15.0913 5.69289 15.0913 5.41675C15.0913 5.14061 14.8675 4.91675 14.5913 4.91675H14.583Z" fill="#F1EFE8"/>
</svg>
