<svg width="212" height="42" viewBox="0 0 212 42" fill="none" xmlns="http://www.w3.org/2000/svg">
<g clip-path="url(#clip0_811_10048)">
<g clip-path="url(#clip1_811_10048)">
<path d="M63.1734 20.1276C63.1734 13.6242 58.732 9.3414 52.9424 9.3414C46.9148 9.3414 42.5527 14.338 42.5527 20.6828C42.5527 27.0276 46.6769 31.3104 52.5458 31.3104C58.6527 31.3104 63.1734 26.7104 63.1734 20.1276ZM58.8113 20.3655C58.8113 24.9655 56.1148 27.2655 52.9424 27.2655C49.8493 27.2655 46.9941 24.8862 46.9941 20.2862C46.9941 15.9242 49.6907 13.4655 52.8631 13.4655C56.1148 13.5448 58.732 16.0035 58.732 20.3655H58.8113ZM79.9872 22.9828C79.9872 17.2724 76.8148 15.8448 74.5148 15.8448C71.6596 15.8448 70.4699 17.5897 70.4699 17.5897V8.31036H66.3458V29.5655C66.3458 29.5655 68.4079 31.1517 72.532 31.1517C76.6561 31.1517 79.9872 28.2173 79.9872 22.9828ZM75.7837 23.6173C75.7837 26.3931 74.4355 27.9793 72.6113 27.9793C71.4217 27.9793 70.4699 27.1862 70.4699 27.1862V21.0793C70.4699 21.0793 71.263 19.7311 73.0872 19.7311C74.4354 19.7311 75.7837 20.9207 75.7837 23.6173ZM94.8182 24.2517C94.8182 19.8897 93.6285 15.8448 88.4734 15.8448C84.1906 15.8448 81.8113 19.0173 81.8113 23.2207C81.8113 28.1379 84.1906 31.1517 88.7113 31.1517C92.3596 31.1517 94.6596 28.8517 94.6596 28.8517L93.0734 26.0759C93.0734 26.0759 91.4872 27.7414 89.1078 27.7414C85.9354 27.7414 85.6975 24.3311 85.6975 24.3311H94.7389L94.8182 24.2517ZM90.694 21.3966H85.6182C85.6182 21.3966 85.8561 18.938 88.2354 18.938C90.8527 18.938 90.694 21.3966 90.694 21.3966ZM106.953 16.4C106.953 16.4 106.16 15.8448 104.811 15.8448C102.035 15.8448 101.401 18.3035 101.401 18.3035V16.2414H97.3561V30.9138H101.401V22.9828C101.401 20.2862 102.908 19.8104 104.018 19.8104C104.705 19.8104 105.372 20.033 105.922 20.4448L106.953 16.4793M122.339 22.9828C122.339 17.2724 119.166 15.8448 116.946 15.8448C114.011 15.8448 112.822 17.5897 112.822 17.5897V8.31036H108.777V29.5655C108.777 29.5655 110.76 31.1517 114.884 31.1517C119.087 31.1517 122.339 28.2173 122.339 22.9828ZM118.294 23.6173C118.294 26.3931 116.946 27.9793 115.122 27.9793C113.853 27.9793 112.901 27.1862 112.901 27.1862V21.0793C112.901 21.0793 113.773 19.7311 115.518 19.7311C116.787 19.7311 118.294 20.9207 118.294 23.6173ZM135.901 30.9138V20.9207C135.901 16.4 132.094 15.8448 130.349 15.8448C126.542 15.8448 124.48 17.9069 124.48 17.9069L125.67 21.0793C125.67 21.0793 127.335 19.2552 129.477 19.2552C132.173 19.2552 132.094 21.0793 132.094 22.0311C128.604 22.0311 124.163 22.6655 124.163 27.0276C124.163 29.9621 126.146 31.3104 128.604 31.3104C130.984 31.3104 132.015 29.0897 132.094 28.6138V30.9138H135.901ZM132.094 25.9966C132.094 27.5828 130.746 28.2966 129.715 28.2966C128.922 28.2966 127.891 28.0586 127.891 26.4724C127.891 24.4897 130.666 24.4897 132.094 24.4897V25.9966ZM152.318 20.5242C152.318 17.669 150.573 15.7655 147.559 15.7655C144.07 15.7655 143.356 18.1448 143.356 18.1448V16.2414H139.232V30.9138H143.356V22.0311C143.356 20.2862 144.704 19.4138 145.973 19.4138C148.194 19.4138 148.353 21 148.353 22.5862V30.9138H152.318V20.5242ZM155.649 8.31036V30.9138H159.694V23.1414L164.453 30.9138H169.449L164.135 22.7448L169.29 16.2414H164.532L159.773 22.269V8.31036H155.649Z" fill="#3E3F3F"/>
</g>
</g>
<defs>
<clipPath id="clip0_811_10048">
<rect width="211" height="42" fill="white" transform="translate(0.5)"/>
</clipPath>
<clipPath id="clip1_811_10048">
<rect width="126.896" height="46" fill="white" transform="translate(42.5527 -2)"/>
</clipPath>
</defs>
</svg>
