<svg width="212" height="42" viewBox="0 0 212 42" fill="none" xmlns="http://www.w3.org/2000/svg">
<g clip-path="url(#clip0_811_10047)">
<path d="M98.1021 6H93.6904L88.5727 19.5H92.5433L93.2492 17.5588H98.5433L99.2492 19.5H103.22L98.1021 6ZM94.1316 14.8235L95.9845 9.70588L97.7492 14.8235H94.1316ZM107.985 11.6471L113.72 19.5H117.073V6H113.632V13.4118L108.161 6H104.543V19.5H107.985V11.6471ZM87.0727 13.5882C86.6097 12.9993 85.9534 12.5931 85.2198 12.4412C85.9257 12.2647 86.4551 11.9118 86.8963 11.3824C87.3374 10.8529 87.5139 10.1471 87.5139 9.35294C87.5139 8.73529 87.3374 8.20588 87.0727 7.67647C86.7905 7.12195 86.3219 6.68458 85.7492 6.44118C85.2198 6.17647 84.5139 6 83.6316 6H75.9551V19.5H83.8963C84.7786 19.5 85.4845 19.3235 86.1021 18.9706C86.7198 18.6176 87.161 18.1765 87.4257 17.6471C87.6904 17.1176 87.8668 16.5 87.8668 15.7941C87.8668 14.9118 87.6021 14.2059 87.0727 13.5882ZM79.4845 8.73529H82.8374C83.1904 8.73529 83.4551 8.82353 83.7198 9.08824C83.9845 9.35294 84.0727 9.61765 84.0727 9.97059C84.0727 10.3235 83.9845 10.5882 83.7198 10.8529C83.4551 11.1176 83.1904 11.2059 82.8374 11.2059H79.4845V8.73529ZM83.9845 16.3235C83.7198 16.5882 83.4551 16.6765 83.0139 16.6765H79.4845V13.9412H83.0139C83.4551 13.9412 83.7198 14.0294 83.9845 14.2941C84.2492 14.5588 84.3374 14.9118 84.3374 15.2647C84.3374 15.7941 84.161 16.0588 83.9845 16.3235ZM141.779 6H137.367L132.249 19.5H136.22L136.926 17.5588H142.22L142.926 19.5H146.896L141.779 6ZM137.808 14.8235L139.661 9.70588L141.426 14.8235H137.808Z" fill="#3E3F3F"/>
<path d="M132.072 6H127.837L123.69 11.5588V6H120.16V19.5H123.69V15.5294L124.572 14.3824L128.101 19.5H132.425L126.866 12.3529L132.072 6Z" fill="#3E3F3F"/>
<path d="M80.4555 25.5882C81.0125 25.2447 81.654 25.0627 82.3085 25.0627C82.9629 25.0627 83.6044 25.2447 84.1614 25.5882C84.6908 25.9412 85.0438 26.4706 85.3085 27L88.3085 25.5882C87.7791 24.6176 87.0732 23.8235 86.1026 23.2059C84.986 22.5336 83.6995 22.1966 82.3967 22.2353C81.1375 22.1927 79.889 22.4796 78.7747 23.0677C77.6605 23.6557 76.7191 24.5246 76.0438 25.5882C75.4 26.6851 75.0605 27.934 75.0605 29.2059C75.0605 30.4778 75.4 31.7266 76.0438 32.8235C76.6756 33.8801 77.5932 34.7366 78.6908 35.2941C79.8379 35.9118 81.0732 36.1765 82.3967 36.1765C83.8967 36.1765 85.132 35.8235 86.1026 35.2059C87.0318 34.6162 87.7919 33.7953 88.3085 32.8235L85.3085 31.4118C85.056 31.9745 84.6605 32.4612 84.1614 32.8235C83.6044 33.1671 82.9629 33.349 82.3085 33.349C81.654 33.349 81.0125 33.1671 80.4555 32.8235C79.8793 32.4132 79.4101 31.8704 79.0876 31.2408C78.7651 30.6112 78.5988 29.9133 78.6026 29.2059C78.6026 28.4118 78.779 27.7059 79.132 27.0882C79.4849 26.4706 79.9261 26.0294 80.4555 25.5882ZM98.8967 31.0588C99.6026 30.7941 100.22 30.3529 100.75 29.647C101.279 28.9412 101.544 28.0588 101.544 27C101.544 26.1176 101.367 25.4118 101.014 24.7059C100.672 24.0176 100.114 23.46 99.4261 23.1176C98.7202 22.7647 97.8379 22.5 96.8673 22.5H90.0732V36H93.5144V31.5H95.2791L97.5732 36H101.544L98.8967 31.0588ZM97.5732 28.2353C97.2202 28.5 96.8673 28.6765 96.3379 28.6765H93.6026V25.2353H96.3379C96.7791 25.2353 97.2202 25.4118 97.5732 25.6765C97.9261 25.9412 98.1026 26.3823 98.1026 26.9118C98.1026 27.5294 97.9261 27.9706 97.5732 28.2353ZM156.514 22.5H152.103L147.073 36H151.044L151.75 34.0588H157.044L157.75 36H161.72L156.514 22.5ZM152.544 31.3235L154.397 26.2059L156.161 31.3235H152.544ZM147.779 22.5H136.75V25.3235H140.456V36H143.985V25.3235H147.779V22.5ZM172.75 29.3823C172.25 28.8158 171.612 28.39 170.897 28.147C170.039 27.8265 169.153 27.5901 168.25 27.4412L166.485 26.8235C166.132 26.647 165.956 26.3823 165.956 26.1176C165.956 25.7647 166.044 25.5 166.309 25.3235C166.573 25.147 166.926 25.0588 167.367 25.0588C168.819 25.0257 170.233 25.5282 171.338 26.4706L173.279 24.0882C172.57 23.4609 171.724 23.0077 170.809 22.7647C169.838 22.5 168.867 22.3235 167.809 22.3235C166.802 22.289 165.802 22.501 164.897 22.9412C164.169 23.2508 163.547 23.7665 163.108 24.425C162.669 25.0834 162.432 25.8557 162.426 26.647C162.426 27.7059 162.691 28.5 163.22 29.0294C163.75 29.647 164.367 30 165.073 30.2647L167.72 30.9706L169.485 31.5C169.838 31.6765 170.014 31.9412 170.014 32.2941C170.014 32.647 169.838 32.9118 169.485 33.1765C169.132 33.4412 168.691 33.5294 168.073 33.5294C167.249 33.5409 166.433 33.3596 165.691 33C164.985 32.647 164.279 32.2059 163.75 31.6765L161.897 34.2353C163.577 35.631 165.715 36.3541 167.897 36.2647C169.661 36.2647 171.073 35.8235 172.044 35.0294C172.523 34.6325 172.906 34.133 173.166 33.5679C173.425 33.0028 173.555 32.3865 173.544 31.7647C173.58 30.9001 173.298 30.0523 172.75 29.3823ZM103.926 36H113.808V33.2647H107.367V30.4412H113.632V27.6176H107.367V25.3235H113.808V22.5H103.926V36ZM128.191 25.6765C127.573 24.7059 126.691 23.9118 125.632 23.2941C124.442 22.7514 123.146 22.4802 121.838 22.5H116.191V36H121.838C123.25 36 124.485 35.7353 125.632 35.2059C126.719 34.7076 127.616 33.8722 128.191 32.8235C128.843 31.7306 129.179 30.4783 129.161 29.2059C129.161 27.8823 128.808 26.647 128.191 25.6765ZM125.103 31.2353C124.838 31.8529 124.397 32.2941 123.779 32.647C123.25 33 122.544 33.1765 121.75 33.1765H119.632V25.2353H121.838C122.985 25.2353 123.956 25.5882 124.573 26.3823C125.191 27.0882 125.544 28.0588 125.544 29.2059C125.544 30 125.456 30.6176 125.103 31.2353ZM131.191 22.5H134.632V36H131.191V22.5Z" fill="#3E3F3F"/>
<path d="M68.4551 27.9706C68.4551 30.1765 67.5727 32.2059 66.0727 33.6176C65.3424 34.3771 64.465 34.98 63.4942 35.3896C62.5234 35.7991 61.4793 36.0068 60.4257 36H38.4551V6H60.4257C62.6316 6 64.661 6.88235 66.0727 8.38235C66.9573 9.24564 67.6282 10.3035 68.0319 11.4717C68.4356 12.6399 68.5611 13.8863 68.3983 15.1115C68.2355 16.3368 67.789 17.5071 67.0942 18.5294C66.3994 19.5517 65.4756 20.3977 64.3963 21C65.6337 21.6935 66.6628 22.7057 67.3766 23.9316C68.0904 25.1574 68.4628 26.5521 68.4551 27.9706Z" fill="#3E3F3F"/>
<path d="M59.0146 26.5588L61.1323 28.6765C59.6142 30.1936 57.6804 31.2266 55.5753 31.6449C53.4702 32.0631 51.2884 31.8478 49.3056 31.0262C47.3229 30.2045 45.6283 28.8135 44.436 27.0289C43.2438 25.2443 42.6074 23.1462 42.6074 21C42.6074 18.8537 43.2438 16.7557 44.436 14.9711C45.6283 13.1865 47.3229 11.7954 49.3056 10.9738C51.2884 10.1522 53.4702 9.93686 55.5753 10.3551C57.6804 10.7733 59.6142 11.8063 61.1323 13.3235L56.897 17.5588C56.2182 16.8762 55.3518 16.4109 54.4079 16.222C53.4639 16.0332 52.4852 16.1293 51.596 16.4982C50.7069 16.8671 49.9475 17.4921 49.4146 18.2937C48.8816 19.0953 48.599 20.0374 48.6029 21C48.599 21.9626 48.8816 22.9046 49.4146 23.7062C49.9475 24.5079 50.7069 25.1329 51.596 25.5018C52.4852 25.8707 53.4639 25.9668 54.4079 25.7779C55.3518 25.5891 56.2182 25.1238 56.897 24.4412L59.0146 26.5588Z" fill="url(#paint0_linear_811_10047)"/>
<path d="M56.897 24.4412L59.0147 26.5588C57.9105 27.6853 56.4959 28.4574 54.9511 28.7768C53.4064 29.0961 51.8016 28.9482 50.3413 28.3518C48.881 27.7555 47.6313 26.7377 46.7517 25.4284C45.8721 24.119 45.4023 22.5774 45.4023 21C45.4023 19.4226 45.8721 17.881 46.7517 16.5716C47.6313 15.2623 48.881 14.2446 50.3413 13.6482C51.8016 13.0519 53.4064 12.9039 54.9511 13.2233C56.4959 13.5426 57.9105 14.3147 59.0147 15.4412L56.897 17.5588C56.2183 16.8762 55.3518 16.4109 54.4079 16.2221C53.464 16.0332 52.4852 16.1293 51.5961 16.4982C50.7069 16.8671 49.9476 17.4921 49.4146 18.2938C48.8816 19.0954 48.5991 20.0374 48.6029 21C48.5991 21.9626 48.8816 22.9047 49.4146 23.7063C49.9476 24.5079 50.7069 25.1329 51.5961 25.5018C52.4852 25.8707 53.464 25.9668 54.4079 25.778C55.3518 25.5891 56.2183 25.1238 56.897 24.4412Z" fill="url(#paint1_linear_811_10047)"/>
</g>
<defs>
<linearGradient id="paint0_linear_811_10047" x1="51.8676" y1="31.8529" x2="51.8676" y2="10.147" gradientUnits="userSpaceOnUse">
<stop stop-color="white"/>
<stop offset="0.3" stop-color="#F6F6F6"/>
<stop offset="0.7" stop-color="#DEDEDE"/>
<stop offset="1" stop-color="#C6C6C6"/>
</linearGradient>
<linearGradient id="paint1_linear_811_10047" x1="52.3088" y1="28.853" x2="52.3088" y2="13.1471" gradientUnits="userSpaceOnUse">
<stop stop-color="#C6C6C6"/>
<stop offset="0.3" stop-color="#DEDEDE"/>
<stop offset="0.7" stop-color="#F6F6F6"/>
<stop offset="1" stop-color="white"/>
</linearGradient>
<clipPath id="clip0_811_10047">
<rect width="135.088" height="30" fill="white" transform="translate(38.4551 6)"/>
</clipPath>
</defs>
</svg>
