<svg width="212" height="42" viewBox="0 0 212 42" fill="none" xmlns="http://www.w3.org/2000/svg">
<g clip-path="url(#clip0_811_10050)">
<path d="M169.764 13.16L166.328 18.1067L162.796 13.16V19.5067H163.846V16.1467L166.328 19.6934L168.81 16.1467V19.5067H169.764V13.16ZM174.919 13.2534C173.105 13.2534 171.673 14.7467 171.673 16.4267C171.673 18.1067 173.105 19.6 174.919 19.6C175.779 19.6 176.605 19.2657 177.213 18.6706C177.822 18.0755 178.164 17.2683 178.164 16.4267C178.164 15.5851 177.822 14.7779 177.213 14.1828C176.605 13.5877 175.779 13.2534 174.919 13.2534ZM174.919 18.6667C173.678 18.6667 172.723 17.7334 172.723 16.4267C172.723 15.8574 172.954 15.3113 173.366 14.9088C173.778 14.5062 174.336 14.28 174.919 14.28C175.501 14.28 176.059 14.5062 176.471 14.9088C176.883 15.3113 177.114 15.8574 177.114 16.4267C177.114 17.7334 176.16 18.6667 174.919 18.6667ZM180.073 13.16V19.5067H181.028V15.4L186.182 19.7867V13.5334H185.132V17.7334L180.073 13.16ZM192.864 13.5334H188.187V19.6H192.864V18.6667H189.237V16.9867H192.673V16.0534H189.237V14.4667H192.864V13.5334ZM200.119 13.5334H198.973L197.064 16.3334L195.155 13.5334H194.01L196.587 17.2667V19.6H197.541V17.2667L200.119 13.5334ZM166.137 22.4934H162.891V28.6534H166.232C167.378 28.6534 168.141 27.72 168.141 26.7867C168.141 26.1334 167.76 25.5734 167.187 25.2934C167.664 25.1067 167.95 24.64 167.95 24.08C167.95 23.1467 167.187 22.4934 166.041 22.4934H166.137ZM163.846 25.0134V23.4267H165.946C166.519 23.4267 166.9 23.8 166.9 24.1734C166.9 24.5467 166.519 25.1067 165.946 25.1067L163.846 25.0134ZM163.846 27.8134V25.9467H166.041C166.71 25.9467 167.091 26.32 167.091 26.88C167.091 27.3467 166.71 27.8134 166.041 27.8134H163.846ZM172.628 22.2134L169 28.6534H170.146L171.005 27.2534H174.441L175.205 28.6534H176.35L172.628 22.2134ZM171.482 26.32L172.628 24.1734L173.869 26.32H171.482ZM177.782 22.3067V28.4667H178.832V24.36L183.891 28.7467V22.4H182.937V26.6L177.782 22.3067ZM191.623 22.4934H190.191L187.041 25.2934V22.4934H186.087V28.56H187.041V26.6L188.187 25.6667L190.573 28.56H191.814L188.95 24.92L191.623 22.4934ZM64.4777 12.88L55.6959 24.2667L46.9141 12.88V28.4667H50.0641V21.56L55.6959 29.0267L61.4232 21.56V28.4667H64.4777V12.88ZM75.2641 13.0667C74.1906 13.0543 73.1252 13.2504 72.1298 13.6436C71.1343 14.0367 70.2286 14.6191 69.465 15.357C68.7015 16.095 68.0953 16.9737 67.6816 17.9424C67.2679 18.911 67.0549 19.9503 67.055 21C67.055 25.3867 70.6822 28.9334 75.2641 28.9334C79.7504 28.9334 83.4732 25.2934 83.4732 21C83.4732 16.6134 79.7504 13.0667 75.2641 13.0667ZM75.2641 25.8534C74.6122 25.8534 73.9668 25.7278 73.3646 25.4839C72.7623 25.24 72.2152 24.8825 71.7542 24.4318C71.2933 23.9812 70.9277 23.4461 70.6783 22.8573C70.4288 22.2685 70.3004 21.6374 70.3004 21C70.2022 20.3126 70.256 19.6126 70.458 18.9473C70.66 18.2819 71.0057 17.6666 71.4716 17.143C71.9375 16.6194 72.5129 16.1995 73.1589 15.9118C73.8049 15.6241 74.5065 15.4753 75.2163 15.4753C75.9262 15.4753 76.6278 15.6241 77.2738 15.9118C77.9198 16.1995 78.4951 16.6194 78.9611 17.143C79.427 17.6666 79.7726 18.2819 79.9747 18.9473C80.1767 19.6126 80.2304 20.3126 80.1322 21C80.1322 23.7067 77.9368 25.8534 75.2641 25.8534ZM85.4777 12.7867V28.56H88.6277V19.1334L100.846 29.0267V13.5334H97.6959V22.8667L85.4777 12.7867ZM115.832 13.44H103.9V28.56H115.832V25.76H107.241V22.3067H115.45V19.6H107.146V16.3334H115.832V13.44ZM133.014 13.44H117.646V16.24H122.323V28.56H125.473V16.24H131.391L133.014 13.44ZM136.832 12.88L127.478 28.4667H131.105L132.728 25.6667H140.746L142.369 28.4667H145.9L136.832 12.88ZM134.255 23.1467L136.737 18.76L139.314 23.1467H134.255ZM153.346 7.37335H154.3V34.6267H153.346V7.37335Z" fill="#3E3F3F"/>
<path d="M14.4591 14.4667L21.4273 21L14.3636 27.5334V14.4667H14.4591ZM35.9364 7.28003L23.7182 18.8534L11.5 7.37336V34.6267L23.6227 23.1467L26.0091 21L32.8818 14.4667V27.5334L28.2045 23.1467L26.0091 25.2934L36.0318 35V7.28003H35.9364Z" fill="#3E3F3F"/>
</g>
<defs>
<clipPath id="clip0_811_10050">
<rect width="189" height="28" fill="white" transform="translate(11.5 7)"/>
</clipPath>
</defs>
</svg>
