<svg width="212" height="42" viewBox="0 0 212 42" fill="none" xmlns="http://www.w3.org/2000/svg">
<g clip-path="url(#clip0_811_10049)">
<path d="M39.6113 5.42395H73.0977V38.9102H39.6113V5.42395Z" fill="white"/>
<path d="M86.6535 12.8753C87.5564 12.7022 88.3649 12.2052 88.927 11.4777C89.4891 10.7503 89.7661 9.84253 89.7059 8.92519C89.7059 5.9626 87.641 4.61596 84.858 4.61596H79.3817V18.6209H82.9727V13.2344L86.474 18.6209H91.0525L86.6535 12.8753ZM83.0625 7.399H83.4216C84.5887 7.399 85.9353 7.57856 85.9353 9.19452C85.9353 10.8105 84.5887 10.99 83.4216 10.99H83.0625V7.399ZM102.454 9.10474H99.0425V10.0025C98.6682 9.59221 98.2098 9.26754 97.6985 9.05063C97.1872 8.83372 96.6351 8.72969 96.08 8.74564C95.4276 8.75671 94.7842 8.89934 94.1883 9.165C93.5924 9.43066 93.0562 9.81388 92.6119 10.2917C92.1676 10.7695 91.8244 11.3321 91.6027 11.9457C91.381 12.5593 91.2855 13.2114 91.3218 13.8628C91.2979 14.5187 91.4049 15.1728 91.6367 15.7868C91.8685 16.4009 92.2203 16.9625 92.6717 17.439C93.1231 17.9155 93.6649 18.2971 94.2655 18.5617C94.8662 18.8264 95.5135 18.9686 96.1697 18.9801C96.7229 19.013 97.2755 18.9071 97.7773 18.6719C98.2791 18.4367 98.714 18.0797 99.0425 17.6334V18.6209H102.454V9.10474ZM96.9777 11.798C97.2563 11.7859 97.5345 11.8303 97.7955 11.9286C98.0565 12.027 98.2948 12.1771 98.4962 12.3701C98.6975 12.5631 98.8577 12.7948 98.967 13.0514C99.0764 13.3079 99.1326 13.584 99.1323 13.8628C99.1323 14.4343 98.9053 14.9823 98.5013 15.3864C98.0972 15.7905 97.5492 16.0175 96.9777 16.0175C96.4063 16.0175 95.8582 15.7905 95.4542 15.3864C95.0501 14.9823 94.8231 14.4343 94.8231 13.8628C94.8103 13.5765 94.8574 13.2906 94.9611 13.0235C95.0649 12.7563 95.2232 12.5136 95.4258 12.311C95.6285 12.1083 95.8712 11.95 96.1383 11.8463C96.4055 11.7425 96.6914 11.6955 96.9777 11.7082M108.289 5.42394C108.289 5.79682 108.179 6.16132 107.972 6.47135C107.765 6.78139 107.47 7.02303 107.126 7.16572C106.781 7.30841 106.402 7.34575 106.036 7.273C105.671 7.20026 105.335 7.0207 105.071 6.75704C104.807 6.49338 104.628 6.15745 104.555 5.79174C104.482 5.42603 104.52 5.04697 104.662 4.70247C104.805 4.35798 105.047 4.06354 105.357 3.85638C105.667 3.64923 106.031 3.53866 106.404 3.53866C106.888 3.56174 107.345 3.77052 107.68 4.12161C108.014 4.47269 108.2 4.93911 108.2 5.42394M104.609 9.01496H108.11V18.6209H104.698L104.609 9.01496ZM114.035 18.6209H110.624V11.9776H109.457V9.10474H110.624V7.84788C110.555 7.25619 110.607 6.65668 110.777 6.0857C110.946 5.51471 111.23 4.98415 111.611 4.52619C112.019 4.04388 112.528 3.65716 113.102 3.39342C113.676 3.12968 114.301 2.99537 114.933 3C115.435 2.99214 115.93 3.11596 116.369 3.3591V6.23192C116.003 6.06362 115.605 5.97197 115.202 5.9626C114.304 5.9626 114.035 6.50125 114.035 7.57856V9.10474H116.369V11.8878H114.035V18.6209ZM121.217 18.6209H117.895V11.9776H116.639V9.10474H117.895V7.84788C117.819 7.26237 117.859 6.66759 118.013 6.0976C118.167 5.52761 118.432 4.99361 118.793 4.52619C119.225 4.025 119.763 3.62751 120.37 3.36328C120.976 3.09905 121.634 2.97488 122.294 3C122.796 2.9962 123.29 3.11976 123.731 3.3591V6.23192C123.363 6.06595 122.967 5.97441 122.564 5.9626C121.666 5.9626 121.397 6.50125 121.397 7.57856V9.10474H123.641V11.8878H121.217V18.6209ZM134.504 14.1322C134.504 10.8105 132.708 8.74564 129.297 8.74564C126.155 8.74564 124 10.7207 124 13.8628C124 17.005 126.334 18.9801 129.566 18.9801C131.721 18.9801 133.876 17.9925 134.414 15.6584H131.182C131.028 15.9475 130.793 16.1859 130.506 16.3451C130.22 16.5043 129.893 16.5776 129.566 16.5561C129.281 16.5989 128.99 16.5758 128.716 16.4886C128.441 16.4013 128.19 16.2523 127.982 16.0529C127.774 15.8535 127.614 15.609 127.515 15.3383C127.416 15.0676 127.381 14.7778 127.412 14.4913H134.594L134.504 14.1322ZM127.501 12.5162C127.65 12.1247 127.914 11.7878 128.259 11.55C128.604 11.3122 129.013 11.1848 129.432 11.1848C129.85 11.1848 130.259 11.3122 130.604 11.55C130.949 11.7878 131.213 12.1247 131.362 12.5162H127.501ZM139.711 5.42394C139.711 5.92395 139.512 6.40348 139.159 6.75704C138.805 7.1106 138.326 7.30923 137.826 7.30923C137.326 7.30923 136.846 7.1106 136.493 6.75704C136.139 6.40348 135.94 5.92395 135.94 5.42394C135.94 4.92393 136.139 4.4444 136.493 4.09084C136.846 3.73728 137.326 3.53866 137.826 3.53866C138.326 3.53866 138.805 3.73728 139.159 4.09084C139.512 4.4444 139.711 4.92393 139.711 5.42394ZM136.12 9.01496H139.531V18.6209H136.21L136.12 9.01496ZM148.06 11.5287C147.502 11.248 146.889 11.0947 146.265 11.0798C145.905 11.0798 145.277 11.2594 145.277 11.7082C145.277 12.4264 146.265 12.5162 146.803 12.606C148.329 12.8753 149.496 13.6833 149.496 15.389C149.496 17.9027 147.252 18.9801 145.008 18.9801C143.677 18.964 142.375 18.5921 141.237 17.9027L142.404 15.5686C143.207 16.0994 144.136 16.409 145.097 16.4663C145.546 16.4663 146.175 16.2868 146.175 15.7481C146.175 15.0299 145.097 15.0299 144.11 14.7606C143.499 14.6929 142.937 14.3956 142.537 13.9289C142.137 13.4622 141.929 12.861 141.955 12.2469C141.955 9.82295 144.02 8.83541 146.175 8.83541C147.255 8.81738 148.327 9.03169 149.317 9.46384L148.06 11.5287ZM161.167 14.1322C161.167 10.8105 159.282 8.74564 155.96 8.74564C152.818 8.74564 150.574 10.7207 150.574 13.8628C150.574 17.005 152.998 18.9801 156.14 18.9801C158.384 18.9801 160.539 17.9925 161.078 15.6584H157.756C157.601 15.9475 157.367 16.1859 157.08 16.3451C156.793 16.5043 156.467 16.5776 156.14 16.5561C155.855 16.5989 155.564 16.5758 155.289 16.4886C155.015 16.4013 154.763 16.2523 154.555 16.0529C154.347 15.8535 154.188 15.609 154.089 15.3383C153.99 15.0676 153.955 14.7778 153.985 14.4913H161.167V14.1322ZM154.075 12.5162C154.163 12.048 154.424 11.6304 154.807 11.3473C155.191 11.0642 155.667 10.9365 156.14 10.99C156.568 11.0026 156.979 11.1606 157.305 11.438C157.632 11.7154 157.854 12.0957 157.935 12.5162H154.075ZM166.105 10.3616C166.417 9.83827 166.866 9.41072 167.405 9.12572C167.943 8.84072 168.549 8.70923 169.157 8.74564C171.851 8.74564 172.748 10.3616 172.748 12.7855V18.6209H169.427V14.0424C169.427 13.1446 169.606 11.4389 167.9 11.4389C166.554 11.4389 166.105 12.5162 166.105 13.6833V18.6209H162.693V9.10474H166.105V10.3616ZM84.9478 27.6883H85.2171C86.1149 27.6883 87.2819 27.6883 87.0126 29.0349C86.7433 30.3815 85.8455 30.3815 84.858 30.3815H84.4989L84.9478 27.6883ZM85.1273 39C87.641 39 90.3343 38.0125 90.7832 35.0499C91.1423 33.0748 90.5139 31.7282 88.5388 31.4589C89.0849 31.1872 89.5528 30.7808 89.8983 30.2782C90.2439 29.7756 90.4557 29.1932 90.5139 28.586C90.9627 25.8928 89.4366 24.995 86.9228 24.995H81.7158L79.4715 38.9102L85.1273 39ZM84.05 33.1646H84.4091C85.666 33.1646 87.4615 32.985 87.1024 34.6908C86.9228 36.217 85.1273 36.1272 84.05 36.1272H83.6011L84.05 33.1646ZM101.107 36.4863L101.646 39H105.506L102.454 24.9052H98.5039L90.873 38.9102H94.7333L96.08 36.3965L101.107 36.4863ZM100.569 33.793H97.5164L99.7608 29.3042L100.569 33.793ZM108.918 24.8155H112.509L117.895 33.5237L119.242 24.9052H122.923L120.768 39H117.087L111.701 30.3815L110.354 39H106.763L108.918 24.8155ZM133.516 24.8155H138.005L131.362 31.5486L136.299 39H131.541L127.771 32.8953L126.783 39H123.192L125.347 24.9052H129.028L128.13 30.7407L133.516 24.8155ZM39.252 4.61596H73.5463V38.9102H39.252V4.61596ZM40.1497 38.0125H72.6485V5.60349H40.1497V38.0125ZM56.3093 25.8928L66.7233 36.217L70.7632 32.1771L60.3492 21.8529L62.4141 19.8778V15.8379L63.8505 14.4015V17.7232L65.2869 19.0698L70.3143 14.0424L71.661 15.389C71.6039 13.0523 70.6376 10.83 68.9677 9.19452C68.5771 8.75337 68.1002 8.39702 67.5664 8.14747C67.0327 7.89792 66.4534 7.76049 65.8644 7.74366C65.2755 7.72683 64.6893 7.83097 64.1422 8.04963C63.595 8.2683 63.0985 8.59684 62.6834 9.01496L57.8355 13.9526L59.0924 15.1197L56.3991 17.813L53.7058 15.1197L54.8729 13.8628L50.025 9.10474C49.6099 8.68662 49.1134 8.35807 48.5663 8.13941C48.0191 7.92075 47.433 7.81661 46.844 7.83344C46.255 7.85027 45.6758 7.9877 45.142 8.23724C44.6082 8.48679 44.1313 8.84315 43.7407 9.28429C42.1038 10.9343 41.1705 13.1548 41.1372 15.4788L42.4839 14.1322L47.5113 19.1596L48.9477 17.813V14.4913L50.2944 15.9277V19.8778L52.3592 21.9426L42.1248 32.0873L46.1647 36.1272L56.3093 25.8928Z" fill="#3E3F3F"/>
</g>
<defs>
<clipPath id="clip0_811_10049">
<rect width="133.496" height="36" fill="white" transform="translate(39.252 3)"/>
</clipPath>
</defs>
</svg>
