<svg width="1600" height="300" viewBox="0 0 1600 300" fill="none" xmlns="http://www.w3.org/2000/svg">
<rect width="1600" height="1" transform="matrix(-1 0 0 1 1600 246)" fill="url(#paint0_linear_811_9961)"/>
<rect x="160.961" width="300" height="1.2012" transform="rotate(90 160.961 0)" fill="url(#paint1_linear_811_9961)"/>
<rect width="300" height="1.2012" transform="matrix(0 -1 -1 0 425.225 300)" fill="url(#paint2_linear_811_9961)"/>
<rect x="689.49" width="300" height="1.2012" transform="rotate(90 689.49 0)" fill="url(#paint3_linear_811_9961)"/>
<rect width="300" height="1.2012" transform="matrix(0 -1 -1 0 953.754 300)" fill="url(#paint4_linear_811_9961)"/>
<rect width="300" height="1.2012" transform="matrix(0 1 1 0 1216.82 0)" fill="url(#paint5_linear_811_9961)"/>
<rect width="300" height="1.2012" transform="matrix(0 -1 -1 0 1482.28 300)" fill="url(#paint6_linear_811_9961)"/>
<rect y="46" width="1600" height="1" fill="url(#paint7_linear_811_9961)"/>
<defs>
<linearGradient id="paint0_linear_811_9961" x1="1150.15" y1="1.0003" x2="136.938" y2="-0.441422" gradientUnits="userSpaceOnUse">
<stop stop-color="#D6D1C2"/>
<stop offset="1" stop-color="#D6D1C2" stop-opacity="0"/>
</linearGradient>
<linearGradient id="paint1_linear_811_9961" x1="376.614" y1="1.20156" x2="186.636" y2="1.15937" gradientUnits="userSpaceOnUse">
<stop stop-color="#D6D1C2"/>
<stop offset="1" stop-color="#D6D1C2" stop-opacity="0"/>
</linearGradient>
<linearGradient id="paint2_linear_811_9961" x1="215.653" y1="1.20156" x2="25.6754" y2="1.15937" gradientUnits="userSpaceOnUse">
<stop stop-color="#D6D1C2"/>
<stop offset="1" stop-color="#D6D1C2" stop-opacity="0"/>
</linearGradient>
<linearGradient id="paint3_linear_811_9961" x1="905.143" y1="1.20156" x2="715.166" y2="1.15937" gradientUnits="userSpaceOnUse">
<stop stop-color="#D6D1C2"/>
<stop offset="1" stop-color="#D6D1C2" stop-opacity="0"/>
</linearGradient>
<linearGradient id="paint4_linear_811_9961" x1="215.653" y1="1.20156" x2="25.6754" y2="1.15937" gradientUnits="userSpaceOnUse">
<stop stop-color="#D6D1C2"/>
<stop offset="1" stop-color="#D6D1C2" stop-opacity="0"/>
</linearGradient>
<linearGradient id="paint5_linear_811_9961" x1="215.653" y1="1.20156" x2="25.6754" y2="1.15937" gradientUnits="userSpaceOnUse">
<stop stop-color="#D6D1C2"/>
<stop offset="1" stop-color="#D6D1C2" stop-opacity="0"/>
</linearGradient>
<linearGradient id="paint6_linear_811_9961" x1="215.653" y1="1.20156" x2="25.6754" y2="1.15937" gradientUnits="userSpaceOnUse">
<stop stop-color="#D6D1C2"/>
<stop offset="1" stop-color="#D6D1C2" stop-opacity="0"/>
</linearGradient>
<linearGradient id="paint7_linear_811_9961" x1="1150.15" y1="47.0003" x2="136.938" y2="45.5586" gradientUnits="userSpaceOnUse">
<stop stop-color="#D6D1C2"/>
<stop offset="1" stop-color="#D6D1C2" stop-opacity="0"/>
</linearGradient>
</defs>
</svg>
